<svg xmlns="http://www.w3.org/2000/svg" width="48" height="48" fill="none" viewBox="0 0 48 48"><rect width="14" height="14" x="34" fill="#0078D4"/><rect width="1" height="14" x="34" y="18.5" fill="#0078D4" transform="rotate(-90 34 18.5)"/><rect width="1" height="14" x="34" y="20.5" fill="#0078D4" transform="rotate(-90 34 20.5)"/><rect width="1" height="14" x="34" y="22.5" fill="#0078D4" transform="rotate(-90 34 22.5)"/><rect width="1" height="14" x="34" y="24.5" fill="#0078D4" transform="rotate(-90 34 24.5)"/><rect width="1" height="14" x="34" y="26.5" fill="#0078D4" transform="rotate(-90 34 26.5)"/><rect width="1" height="14" x="34" y="28.5" fill="#0078D4" transform="rotate(-90 34 28.5)"/><rect width="1" height="14" x="34" y="30.5" fill="#0078D4" transform="rotate(-90 34 30.5)"/><rect width="14" height="14" x="17" y="17" fill="#4F6BED"/><rect width="14" height="14" x="34" y="34" fill="#50E6FF"/><rect width="14" height="14" y="34" fill="#50E6FF"/><circle cx="18" cy="35" r="1" fill="#50E6FF"/><circle cx="18" cy="39" r="1" fill="#50E6FF"/><circle cx="18" cy="43" r="1" fill="#50E6FF"/><circle cx="18" cy="47" r="1" fill="#50E6FF"/><circle cx="22" cy="35" r="1" fill="#50E6FF"/><circle cx="22" cy="39" r="1" fill="#50E6FF"/><circle cx="22" cy="43" r="1" fill="#50E6FF"/><circle cx="22" cy="47" r="1" fill="#50E6FF"/><circle cx="26" cy="35" r="1" fill="#50E6FF"/><circle cx="26" cy="39" r="1" fill="#50E6FF"/><circle cx="26" cy="43" r="1" fill="#50E6FF"/><circle cx="26" cy="47" r="1" fill="#50E6FF"/><circle cx="30" cy="35" r="1" fill="#50E6FF"/><circle cx="30" cy="39" r="1" fill="#50E6FF"/><circle cx="30" cy="43" r="1" fill="#50E6FF"/><circle cx="30" cy="47" r="1" fill="#50E6FF"/></svg>