<svg xmlns="http://www.w3.org/2000/svg" width="48" height="48" fill="none" viewBox="0 0 48 48"><circle cx="30.545" cy="30.546" r="17.454" fill="#004E8C"/><mask id="mask0" width="35" height="35" x="0" y="0" mask-type="alpha" maskUnits="userSpaceOnUse"><circle cx="17.454" cy="17.454" r="17.454" fill="#fff"/></mask><g mask="url(#mask0)"><rect width=".873" height="34.909" x="-7.229" y="17.455" fill="#4F6BED" transform="rotate(-45 -7.22949 17.4548)"/><rect width=".873" height="34.909" x="-5.379" y="15.603" fill="#4F6BED" transform="rotate(-45 -5.37891 15.6031)"/><rect width=".873" height="34.909" x="-3.527" y="13.752" fill="#4F6BED" transform="rotate(-45 -3.52734 13.7518)"/><rect width=".873" height="34.909" x="-1.677" y="11.9" fill="#4F6BED" transform="rotate(-45 -1.67676 11.9004)"/><rect width=".873" height="34.909" x=".175" y="10.049" fill="#4F6BED" transform="rotate(-45 0.174805 10.0492)"/><rect width=".873" height="34.909" x="2.026" y="8.198" fill="#4F6BED" transform="rotate(-45 2.02637 8.19788)"/><rect width=".873" height="34.909" x="3.878" y="6.346" fill="#4F6BED" transform="rotate(-45 3.87793 6.34644)"/><rect width=".873" height="34.909" x="5.729" y="4.495" fill="#4F6BED" transform="rotate(-45 5.72852 4.49512)"/><rect width=".873" height="34.909" x="7.58" y="2.644" fill="#4F6BED" transform="rotate(-45 7.58008 2.6438)"/><rect width=".873" height="34.909" x="9.432" y=".792" fill="#4F6BED" transform="rotate(-45 9.43164 0.79248)"/><rect width=".873" height="34.909" x="11.283" y="-1.059" fill="#4F6BED" transform="rotate(-45 11.2832 -1.05896)"/><rect width=".873" height="34.909" x="13.134" y="-2.91" fill="#4F6BED" transform="rotate(-45 13.1338 -2.91016)"/><rect width=".873" height="34.909" x="14.985" y="-4.761" fill="#4F6BED" transform="rotate(-45 14.9854 -4.76147)"/><rect width=".873" height="34.909" x="16.837" y="-6.613" fill="#4F6BED" transform="rotate(-45 16.8369 -6.61279)"/></g></svg>