<svg xmlns="http://www.w3.org/2000/svg" xmlns:xlink="http://www.w3.org/1999/xlink" id="Layer_1" x="0" y="0" enable-background="new 0 0 370 178" version="1.1" viewBox="0 0 370 178" xml:space="preserve"><path fill="#FCE100" d="M197.9,58.5c-0.3-0.3-0.6-0.3-1-0.2c0.3,0.6,0.6,1.2,0.9,1.7c0,0,0.1,0,0.1-0.1	C198.2,59.5,198.2,58.9,197.9,58.5z"/><ellipse cx="200.7" cy="62.7" fill="#FCE100" rx="1" ry="1" transform="matrix(0.7071 -0.7071 0.7071 0.7071 14.4334 160.2719)"/><ellipse cx="204.2" cy="66.2" fill="#FCE100" rx="1" ry="1" transform="matrix(0.7071 -0.7071 0.7071 0.7071 12.967 163.8036)"/><ellipse cx="207.8" cy="69.8" fill="#FCE100" rx="1" ry="1" transform="matrix(0.7071 -0.7071 0.7071 0.7071 11.5045 167.3429)"/><ellipse cx="211.3" cy="73.3" fill="#FCE100" rx="1" ry="1" transform="matrix(0.7071 -0.7071 0.7071 0.7071 10.042 170.8824)"/><path fill="#FCE100" d="M215.5,76.1c-0.4-0.4-1-0.4-1.4,0c0,0,0,0.1-0.1,0.1c0.6,0.3,1.1,0.6,1.7,0.9	C215.9,76.8,215.8,76.4,215.5,76.1z"/><path fill="#FCE100" d="M194.3,47.9c-0.2-0.2-0.5-0.3-0.8-0.3c0.1,0.6,0.2,1.3,0.4,1.9c0.1,0,0.3-0.1,0.4-0.2	C194.7,48.9,194.7,48.3,194.3,47.9z"/><ellipse cx="197.1" cy="52.1" fill="#FCE100" rx="1" ry="1" transform="matrix(0.7071 -0.7071 0.7071 0.7071 20.8981 154.6656)"/><ellipse cx="200.7" cy="55.6" fill="#FCE100" rx="1" ry="1" transform="matrix(0.7071 -0.7071 0.7071 0.7071 19.4313 158.1969)"/><ellipse cx="204.2" cy="59.2" fill="#FCE100" rx="1" ry="1" transform="matrix(0.7071 -0.7071 0.7071 0.7071 17.9692 161.7367)"/><ellipse cx="207.8" cy="62.7" fill="#FCE100" rx="1" ry="1" transform="matrix(0.7071 -0.7071 0.7071 0.7071 16.5044 165.2719)"/><ellipse cx="211.3" cy="66.2" fill="#FCE100" rx="1" ry="1" transform="matrix(0.7071 -0.7071 0.7071 0.7071 15.0398 168.807)"/><ellipse cx="214.8" cy="69.8" fill="#FCE100" rx="1" ry="1" transform="matrix(0.7071 -0.7071 0.7071 0.7071 13.5778 172.3472)"/><ellipse cx="218.4" cy="73.3" fill="#FCE100" rx="1" ry="1" transform="matrix(0.7071 -0.7071 0.7071 0.7071 12.1112 175.8787)"/><ellipse cx="221.9" cy="76.9" fill="#FCE100" rx="1" ry="1" transform="matrix(0.7071 -0.7071 0.7071 0.7071 10.6469 179.4146)"/><path fill="#FCE100" d="M226.1,79.7c-0.4-0.4-1-0.4-1.4,0c-0.1,0.1-0.2,0.3-0.2,0.4c0.6,0.1,1.3,0.3,1.9,0.4	C226.4,80.2,226.3,79.9,226.1,79.7z"/><path fill="#FCE100" d="M194.3,42.2c0.4-0.4,0.4-1,0-1.4c-0.4-0.4-0.9-0.4-1.3-0.1c0,0.1,0,0.2,0,0.3c0,0.4,0,0.9,0,1.3	C193.4,42.6,194,42.6,194.3,42.2z"/><ellipse cx="197.1" cy="45" fill="#FCE100" rx="1" ry="1" transform="matrix(0.7071 -0.7071 0.7071 0.7071 25.8981 152.5946)"/><ellipse cx="200.7" cy="48.6" fill="#FCE100" rx="1" ry="1" transform="matrix(0.7071 -0.7071 0.7071 0.7071 24.4312 156.1259)"/><ellipse cx="204.2" cy="52.1" fill="#FCE100" rx="1" ry="1" transform="matrix(0.7071 -0.7071 0.7071 0.7071 22.9691 159.6656)"/><ellipse cx="207.8" cy="55.6" fill="#FCE100" rx="1" ry="1" transform="matrix(0.7071 -0.7071 0.7071 0.7071 21.5022 163.1967)"/><ellipse cx="211.3" cy="59.2" fill="#FCE100" rx="1" ry="1" transform="matrix(0.7071 -0.7071 0.7071 0.7071 20.0423 166.74)"/><ellipse cx="214.8" cy="62.7" fill="#FCE100" rx="1" ry="1" transform="matrix(0.7071 -0.7071 0.7071 0.7071 18.5755 170.2718)"/><ellipse cx="218.4" cy="66.2" fill="#FCE100" rx="1" ry="1" transform="matrix(0.7071 -0.7071 0.7071 0.7071 17.1112 173.8077)"/><ellipse cx="221.9" cy="69.8" fill="#FCE100" rx="1" ry="1" transform="matrix(0.7071 -0.7071 0.7071 0.7071 15.6469 177.3435)"/><ellipse cx="225.4" cy="73.3" fill="#FCE100" rx="1" ry="1" transform="matrix(0.7071 -0.7071 0.7071 0.7071 14.1823 180.8787)"/><ellipse cx="229" cy="76.9" fill="#FCE100" rx="1" ry="1" transform="matrix(0.7071 -0.7071 0.7071 0.7071 12.7154 184.4091)"/><path fill="#FCE100" d="M233.2,79.7c-0.4-0.4-1-0.4-1.4,0c-0.4,0.4-0.4,0.9-0.1,1.3c0.4,0,0.9,0,1.3,0c0.1,0,0.2,0,0.3,0	C233.6,80.6,233.6,80,233.2,79.7z"/><path fill="#FCE100" d="M194.3,35.1c0.4-0.4,0.4-1,0-1.4c-0.2-0.2-0.4-0.2-0.6-0.3c-0.1,0.6-0.2,1.3-0.3,1.9	C193.7,35.5,194.1,35.4,194.3,35.1z"/><ellipse cx="197.1" cy="38" fill="#FCE100" rx="1" ry="1" transform="matrix(0.7071 -0.7071 0.7071 0.7071 30.8981 150.5235)"/><ellipse cx="200.7" cy="41.5" fill="#FCE100" rx="1" ry="1" transform="matrix(0.7071 -0.7071 0.7071 0.7071 29.4335 154.0587)"/><ellipse cx="204.2" cy="45" fill="#FCE100" rx="1" ry="1" transform="matrix(0.7071 -0.7071 0.7071 0.7071 27.9692 157.5945)"/><ellipse cx="207.8" cy="48.6" fill="#FCE100" rx="1" ry="1" transform="matrix(0.7071 -0.7071 0.7071 0.7071 26.5021 161.1258)"/><ellipse cx="211.3" cy="52.1" fill="#FCE100" rx="1" ry="1" transform="matrix(0.7071 -0.7071 0.7071 0.7071 25.0399 164.6648)"/><ellipse cx="214.8" cy="55.6" fill="#FCE100" rx="1" ry="1" transform="matrix(0.7071 -0.7071 0.7071 0.7071 23.578 168.2048)"/><ellipse cx="218.4" cy="59.2" fill="#FCE100" rx="1" ry="1" transform="matrix(0.7071 -0.7071 0.7071 0.7071 22.1113 171.7365)"/><ellipse cx="221.9" cy="62.7" fill="#FCE100" rx="1" ry="1" transform="matrix(0.7071 -0.7071 0.7071 0.7071 20.6444 175.2681)"/><ellipse cx="225.4" cy="66.2" fill="#FCE100" rx="1" ry="1" transform="matrix(0.7071 -0.7071 0.7071 0.7071 19.1798 178.8031)"/><ellipse cx="229" cy="69.8" fill="#FCE100" rx="1" ry="1" transform="matrix(0.7071 -0.7071 0.7071 0.7071 17.7176 182.3428)"/><ellipse cx="232.5" cy="73.3" fill="#FCE100" rx="1" ry="1" transform="matrix(0.7071 -0.7071 0.7071 0.7071 16.2509 185.8739)"/><ellipse cx="236" cy="76.9" fill="#FCE100" rx="1" ry="1" transform="matrix(0.7071 -0.7071 0.7071 0.7071 14.7912 189.4185)"/><path fill="#FCE100" d="M238.9,79.7c-0.2,0.2-0.3,0.6-0.3,0.9c0.7-0.1,1.3-0.2,1.9-0.3c0-0.2-0.1-0.4-0.3-0.6	C239.9,79.3,239.3,79.3,238.9,79.7z"/><ellipse cx="197.1" cy="30.9" fill="#FCE100" rx="1" ry="1" transform="matrix(0.7071 -0.7071 0.7071 0.7071 35.8981 148.4525)"/><ellipse cx="200.7" cy="34.4" fill="#FCE100" rx="1" ry="1" transform="matrix(0.7071 -0.7071 0.7071 0.7071 34.4334 151.9876)"/><ellipse cx="204.2" cy="38" fill="#FCE100" rx="1" ry="1" transform="matrix(0.7071 -0.7071 0.7071 0.7071 32.9691 155.5235)"/><ellipse cx="207.8" cy="41.5" fill="#FCE100" rx="1" ry="1" transform="matrix(0.7071 -0.7071 0.7071 0.7071 31.5045 159.0586)"/><ellipse cx="211.3" cy="45" fill="#FCE100" rx="1" ry="1" transform="matrix(0.7071 -0.7071 0.7071 0.7071 30.0399 162.5938)"/><ellipse cx="214.8" cy="48.6" fill="#FCE100" rx="1" ry="1" transform="matrix(0.7071 -0.7071 0.7071 0.7071 28.5782 166.1336)"/><ellipse cx="218.4" cy="52.1" fill="#FCE100" rx="1" ry="1" transform="matrix(0.7071 -0.7071 0.7071 0.7071 27.1087 169.6614)"/><ellipse cx="221.9" cy="55.6" fill="#FCE100" rx="1" ry="1" transform="matrix(0.7071 -0.7071 0.7071 0.7071 25.6469 173.2014)"/><ellipse cx="225.4" cy="59.2" fill="#FCE100" rx="1" ry="1" transform="matrix(0.7071 -0.7071 0.7071 0.7071 24.1849 176.7409)"/><ellipse cx="229" cy="62.7" fill="#FCE100" rx="1" ry="1" transform="matrix(0.7071 -0.7071 0.7071 0.7071 22.7151 180.2673)"/><ellipse cx="232.5" cy="66.2" fill="#FCE100" rx="1" ry="1" transform="matrix(0.7071 -0.7071 0.7071 0.7071 21.2533 183.8076)"/><ellipse cx="236" cy="69.8" fill="#FCE100" rx="1" ry="1" transform="matrix(0.7071 -0.7071 0.7071 0.7071 19.7887 187.3427)"/><ellipse cx="239.6" cy="73.3" fill="#FCE100" rx="1" ry="1" transform="matrix(0.7071 -0.7071 0.7071 0.7071 18.3244 190.8786)"/><ellipse cx="243.1" cy="76.9" fill="#FCE100" rx="1" ry="1" transform="matrix(0.7071 -0.7071 0.7071 0.7071 16.8601 194.4144)"/><path fill="#FCE100" d="M197.9,24.5c0.4-0.4,0.4-1,0-1.4c-0.1-0.1-0.3-0.2-0.5-0.3c-0.3,0.6-0.6,1.1-0.8,1.7	C196.9,24.9,197.5,24.9,197.9,24.5z"/><ellipse cx="200.7" cy="27.4" fill="#FCE100" rx="1" ry="1" transform="matrix(0.7071 -0.7071 0.7071 0.7071 39.4334 149.9165)"/><ellipse cx="204.2" cy="30.9" fill="#FCE100" rx="1" ry="1" transform="matrix(0.7071 -0.7071 0.7071 0.7071 37.9691 153.4524)"/><ellipse cx="207.8" cy="34.4" fill="#FCE100" rx="1" ry="1" transform="matrix(0.7071 -0.7071 0.7071 0.7071 36.5045 156.9876)"/><ellipse cx="211.3" cy="38" fill="#FCE100" rx="1" ry="1" transform="matrix(0.7071 -0.7071 0.7071 0.7071 35.0425 160.5265)"/><ellipse cx="214.8" cy="41.5" fill="#FCE100" rx="1" ry="1" transform="matrix(0.7071 -0.7071 0.7071 0.7071 33.5782 164.0625)"/><ellipse cx="218.4" cy="45" fill="#FCE100" rx="1" ry="1" transform="matrix(0.7071 -0.7071 0.7071 0.7071 32.1086 167.5904)"/><ellipse cx="221.9" cy="48.6" fill="#FCE100" rx="1" ry="1" transform="matrix(0.7071 -0.7071 0.7071 0.7071 30.6443 171.1262)"/><ellipse cx="225.4" cy="52.1" fill="#FCE100" rx="1" ry="1" transform="matrix(0.7071 -0.7071 0.7071 0.7071 29.1823 174.6655)"/><ellipse cx="229" cy="55.6" fill="#FCE100" rx="1" ry="1" transform="matrix(0.7071 -0.7071 0.7071 0.7071 27.7177 178.2006)"/><ellipse cx="232.5" cy="59.2" fill="#FCE100" rx="1" ry="1" transform="matrix(0.7071 -0.7071 0.7071 0.7071 26.2507 181.732)"/><ellipse cx="236" cy="62.7" fill="#FCE100" rx="1" ry="1" transform="matrix(0.7071 -0.7071 0.7071 0.7071 24.7886 185.2717)"/><ellipse cx="239.6" cy="66.2" fill="#FCE100" rx="1" ry="1" transform="matrix(0.7071 -0.7071 0.7071 0.7071 23.3217 188.8029)"/><ellipse cx="243.1" cy="69.8" fill="#FCE100" rx="1" ry="1" transform="matrix(0.7071 -0.7071 0.7071 0.7071 21.8627 192.3481)"/><ellipse cx="246.6" cy="73.3" fill="#FCE100" rx="1" ry="1" transform="matrix(0.7071 -0.7071 0.7071 0.7071 20.3954 195.8785)"/><path fill="#FCE100" d="M249.5,76.1c-0.4,0.4-0.4,0.9-0.1,1.3c0.6-0.3,1.2-0.5,1.7-0.8c0-0.2-0.1-0.4-0.3-0.5	C250.5,75.8,249.9,75.8,249.5,76.1z"/><ellipse cx="200.7" cy="20.3" fill="#FCE100" rx="1" ry="1" transform="matrix(0.7071 -0.7071 0.7071 0.7071 44.4308 147.8421)"/><ellipse cx="204.2" cy="23.8" fill="#FCE100" rx="1" ry="1" transform="matrix(0.7071 -0.7071 0.7071 0.7071 42.9718 151.3848)"/><ellipse cx="207.8" cy="27.4" fill="#FCE100" rx="1" ry="1" transform="matrix(0.7071 -0.7071 0.7071 0.7071 41.5045 154.9165)"/><ellipse cx="211.3" cy="30.9" fill="#FCE100" rx="1" ry="1" transform="matrix(0.7071 -0.7071 0.7071 0.7071 40.0399 158.4516)"/><ellipse cx="214.8" cy="34.4" fill="#FCE100" rx="1" ry="1" transform="matrix(0.7071 -0.7071 0.7071 0.7071 38.5755 161.9875)"/><ellipse cx="218.4" cy="38" fill="#FCE100" rx="1" ry="1" transform="matrix(0.7071 -0.7071 0.7071 0.7071 37.1084 165.5195)"/><ellipse cx="221.9" cy="41.5" fill="#FCE100" rx="1" ry="1" transform="matrix(0.7071 -0.7071 0.7071 0.7071 35.6469 169.0592)"/><ellipse cx="225.4" cy="45" fill="#FCE100" rx="1" ry="1" transform="matrix(0.7071 -0.7071 0.7071 0.7071 34.185 172.5985)"/><ellipse cx="229" cy="48.6" fill="#FCE100" rx="1" ry="1" transform="matrix(0.7071 -0.7071 0.7071 0.7071 32.7149 176.1253)"/><ellipse cx="232.5" cy="52.1" fill="#FCE100" rx="1" ry="1" transform="matrix(0.7071 -0.7071 0.7071 0.7071 31.2506 179.6611)"/><ellipse cx="236" cy="55.6" fill="#FCE100" rx="1" ry="1" transform="matrix(0.7071 -0.7071 0.7071 0.7071 29.7887 183.2005)"/><ellipse cx="239.6" cy="59.2" fill="#FCE100" rx="1" ry="1" transform="matrix(0.7071 -0.7071 0.7071 0.7071 28.3244 186.7364)"/><ellipse cx="243.1" cy="62.7" fill="#FCE100" rx="1" ry="1" transform="matrix(0.7071 -0.7071 0.7071 0.7071 26.8627 190.277)"/><ellipse cx="246.6" cy="66.2" fill="#FCE100" rx="1" ry="1" transform="matrix(0.7071 -0.7071 0.7071 0.7071 25.3926 193.8027)"/><ellipse cx="250.2" cy="69.8" fill="#FCE100" rx="1" ry="1" transform="matrix(0.7071 -0.7071 0.7071 0.7071 23.9311 197.3433)"/><ellipse cx="253.7" cy="73.3" fill="#FCE100" rx="1" ry="1" transform="matrix(0.7071 -0.7071 0.7071 0.7071 22.4692 200.8835)"/><ellipse cx="204.2" cy="16.8" fill="#FCE100" rx="1" ry="1" transform="matrix(0.7071 -0.7071 0.7071 0.7071 47.9692 149.3103)"/><ellipse cx="207.8" cy="20.3" fill="#FCE100" rx="1" ry="1" transform="matrix(0.7071 -0.7071 0.7071 0.7071 46.5017 152.8419)"/><ellipse cx="211.3" cy="23.8" fill="#FCE100" rx="1" ry="1" transform="matrix(0.7071 -0.7071 0.7071 0.7071 45.0427 156.3842)"/><ellipse cx="214.8" cy="27.4" fill="#FCE100" rx="1" ry="1" transform="matrix(0.7071 -0.7071 0.7071 0.7071 43.5756 159.9164)"/><ellipse cx="218.4" cy="30.9" fill="#FCE100" rx="1" ry="1" transform="matrix(0.7071 -0.7071 0.7071 0.7071 42.1084 163.4485)"/><ellipse cx="221.9" cy="34.4" fill="#FCE100" rx="1" ry="1" transform="matrix(0.7071 -0.7071 0.7071 0.7071 40.644 166.9843)"/><ellipse cx="225.4" cy="38" fill="#FCE100" rx="1" ry="1" transform="matrix(0.7071 -0.7071 0.7071 0.7071 39.1823 170.5233)"/><ellipse cx="229" cy="41.5" fill="#FCE100" rx="1" ry="1" transform="matrix(0.7071 -0.7071 0.7071 0.7071 37.7177 174.0585)"/><ellipse cx="232.5" cy="45" fill="#FCE100" rx="1" ry="1" transform="matrix(0.7071 -0.7071 0.7071 0.7071 36.2505 177.5901)"/><ellipse cx="236" cy="48.6" fill="#FCE100" rx="1" ry="1" transform="matrix(0.7071 -0.7071 0.7071 0.7071 34.7859 181.1251)"/><ellipse cx="239.6" cy="52.1" fill="#FCE100" rx="1" ry="1" transform="matrix(0.7071 -0.7071 0.7071 0.7071 33.3215 184.6609)"/><ellipse cx="243.1" cy="55.6" fill="#FCE100" rx="1" ry="1" transform="matrix(0.7071 -0.7071 0.7071 0.7071 31.8601 188.2012)"/><ellipse cx="246.6" cy="59.2" fill="#FCE100" rx="1" ry="1" transform="matrix(0.7071 -0.7071 0.7071 0.7071 30.3983 191.741)"/><ellipse cx="250.2" cy="62.7" fill="#FCE100" rx="1" ry="1" transform="matrix(0.7071 -0.7071 0.7071 0.7071 28.9282 195.2675)"/><ellipse cx="253.7" cy="66.2" fill="#FCE100" rx="1" ry="1" transform="matrix(0.7071 -0.7071 0.7071 0.7071 27.4664 198.8074)"/><ellipse cx="257.3" cy="69.8" fill="#FCE100" rx="1" ry="1" transform="matrix(0.7071 -0.7071 0.7071 0.7071 26.005 202.3483)"/><ellipse cx="207.8" cy="13.2" fill="#FCE100" rx="1" ry="1" transform="matrix(0.7071 -0.7071 0.7071 0.7071 51.5045 150.7743)"/><ellipse cx="211.3" cy="16.8" fill="#FCE100" rx="1" ry="1" transform="matrix(0.7071 -0.7071 0.7071 0.7071 50.0429 154.313)"/><ellipse cx="214.8" cy="20.3" fill="#FCE100" rx="1" ry="1" transform="matrix(0.7071 -0.7071 0.7071 0.7071 48.5786 157.8489)"/><ellipse cx="218.4" cy="23.8" fill="#FCE100" rx="1" ry="1" transform="matrix(0.7071 -0.7071 0.7071 0.7071 47.1112 161.3812)"/><ellipse cx="221.9" cy="27.4" fill="#FCE100" rx="1" ry="1" transform="matrix(0.7071 -0.7071 0.7071 0.7071 45.6469 164.9171)"/><ellipse cx="225.4" cy="30.9" fill="#FCE100" rx="1" ry="1" transform="matrix(0.7071 -0.7071 0.7071 0.7071 44.1852 168.4562)"/><ellipse cx="229" cy="34.4" fill="#FCE100" rx="1" ry="1" transform="matrix(0.7071 -0.7071 0.7071 0.7071 42.7147 171.9834)"/><ellipse cx="232.5" cy="38" fill="#FCE100" rx="1" ry="1" transform="matrix(0.7071 -0.7071 0.7071 0.7071 41.2503 175.5192)"/><ellipse cx="236" cy="41.5" fill="#FCE100" rx="1" ry="1" transform="matrix(0.7071 -0.7071 0.7071 0.7071 39.7917 179.0627)"/><ellipse cx="239.6" cy="45" fill="#FCE100" rx="1" ry="1" transform="matrix(0.7071 -0.7071 0.7071 0.7071 38.3214 182.5899)"/><ellipse cx="243.1" cy="48.6" fill="#FCE100" rx="1" ry="1" transform="matrix(0.7071 -0.7071 0.7071 0.7071 36.8601 186.1301)"/><ellipse cx="246.6" cy="52.1" fill="#FCE100" rx="1" ry="1" transform="matrix(0.7071 -0.7071 0.7071 0.7071 35.3954 189.6653)"/><ellipse cx="250.2" cy="55.6" fill="#FCE100" rx="1" ry="1" transform="matrix(0.7071 -0.7071 0.7071 0.7071 33.9311 193.2012)"/><ellipse cx="253.7" cy="59.2" fill="#FCE100" rx="1" ry="1" transform="matrix(0.7071 -0.7071 0.7071 0.7071 32.4695 196.7411)"/><ellipse cx="257.3" cy="62.7" fill="#FCE100" rx="1" ry="1" transform="matrix(0.7071 -0.7071 0.7071 0.7071 31.0021 200.2722)"/><ellipse cx="260.8" cy="66.2" fill="#FCE100" rx="1" ry="1" transform="matrix(0.7071 -0.7071 0.7071 0.7071 29.5345 203.8024)"/><ellipse cx="211.3" cy="9.7" fill="#FCE100" rx="1" ry="1" transform="matrix(0.7071 -0.7071 0.7071 0.7071 55.043 152.2418)"/><ellipse cx="214.8" cy="13.2" fill="#FCE100" rx="1" ry="1" transform="matrix(0.7071 -0.7071 0.7071 0.7071 53.5787 155.7778)"/><ellipse cx="218.4" cy="16.8" fill="#FCE100" rx="1" ry="1" transform="matrix(0.7071 -0.7071 0.7071 0.7071 52.1143 159.3138)"/><ellipse cx="221.9" cy="20.3" fill="#FCE100" rx="1" ry="1" transform="matrix(0.7071 -0.7071 0.7071 0.7071 50.647 162.846)"/><ellipse cx="225.4" cy="23.8" fill="#FCE100" rx="1" ry="1" transform="matrix(0.7071 -0.7071 0.7071 0.7071 49.1822 166.3812)"/><ellipse cx="229" cy="27.4" fill="#FCE100" rx="1" ry="1" transform="matrix(0.7071 -0.7071 0.7071 0.7071 47.7176 169.9164)"/><ellipse cx="232.5" cy="30.9" fill="#FCE100" rx="1" ry="1" transform="matrix(0.7071 -0.7071 0.7071 0.7071 46.2503 173.4482)"/><ellipse cx="236" cy="34.4" fill="#FCE100" rx="1" ry="1" transform="matrix(0.7071 -0.7071 0.7071 0.7071 44.7856 176.9832)"/><ellipse cx="239.6" cy="38" fill="#FCE100" rx="1" ry="1" transform="matrix(0.7071 -0.7071 0.7071 0.7071 43.3244 180.5232)"/><ellipse cx="243.1" cy="41.5" fill="#FCE100" rx="1" ry="1" transform="matrix(0.7071 -0.7071 0.7071 0.7071 41.8631 184.0634)"/><ellipse cx="246.6" cy="45" fill="#FCE100" rx="1" ry="1" transform="matrix(0.7071 -0.7071 0.7071 0.7071 40.3924 187.5898)"/><ellipse cx="250.2" cy="48.6" fill="#FCE100" rx="1" ry="1" transform="matrix(0.7071 -0.7071 0.7071 0.7071 38.9312 191.1301)"/><ellipse cx="253.7" cy="52.1" fill="#FCE100" rx="1" ry="1" transform="matrix(0.7071 -0.7071 0.7071 0.7071 37.4665 194.6653)"/><ellipse cx="257.3" cy="55.6" fill="#FCE100" rx="1" ry="1" transform="matrix(0.7071 -0.7071 0.7071 0.7071 36.0053 198.2059)"/><ellipse cx="260.8" cy="59.2" fill="#FCE100" rx="1" ry="1" transform="matrix(0.7071 -0.7071 0.7071 0.7071 34.5345 201.7314)"/><ellipse cx="264.3" cy="62.7" fill="#FCE100" rx="1" ry="1" transform="matrix(0.7071 -0.7071 0.7071 0.7071 33.0759 205.2765)"/><path fill="#FCE100" d="M214.1,6.9c0.4,0.4,1,0.4,1.4,0c0.4-0.4,0.4-1,0-1.4c-0.1-0.1-0.2-0.2-0.4-0.2c-0.4,0.2-0.8,0.4-1.3,0.7	C213.8,6.2,213.8,6.6,214.1,6.9z"/><ellipse cx="218.4" cy="9.7" fill="#FCE100" rx="1" ry="1" transform="matrix(0.7071 -0.7071 0.7071 0.7071 57.1112 157.2391)"/><ellipse cx="221.9" cy="13.2" fill="#FCE100" rx="1" ry="1" transform="matrix(0.7071 -0.7071 0.7071 0.7071 55.6469 160.7749)"/><ellipse cx="225.4" cy="16.8" fill="#FCE100" rx="1" ry="1" transform="matrix(0.7071 -0.7071 0.7071 0.7071 54.1823 164.3101)"/><ellipse cx="229" cy="20.3" fill="#FCE100" rx="1" ry="1" transform="matrix(0.7071 -0.7071 0.7071 0.7071 52.7177 167.8452)"/><ellipse cx="232.5" cy="23.8" fill="#FCE100" rx="1" ry="1" transform="matrix(0.7071 -0.7071 0.7071 0.7071 51.2565 171.3851)"/><ellipse cx="236" cy="27.4" fill="#FCE100" rx="1" ry="1" transform="matrix(0.7071 -0.7071 0.7071 0.7071 49.7887 174.9163)"/><ellipse cx="239.6" cy="30.9" fill="#FCE100" rx="1" ry="1" transform="matrix(0.7071 -0.7071 0.7071 0.7071 48.3212 178.448)"/><ellipse cx="243.1" cy="34.4" fill="#FCE100" rx="1" ry="1" transform="matrix(0.7071 -0.7071 0.7071 0.7071 46.8632 181.9923)"/><ellipse cx="246.6" cy="38" fill="#FCE100" rx="1" ry="1" transform="matrix(0.7071 -0.7071 0.7071 0.7071 45.3986 185.5275)"/><ellipse cx="250.2" cy="41.5" fill="#FCE100" rx="1" ry="1" transform="matrix(0.7071 -0.7071 0.7071 0.7071 43.9311 189.059)"/><ellipse cx="253.7" cy="45" fill="#FCE100" rx="1" ry="1" transform="matrix(0.7071 -0.7071 0.7071 0.7071 42.4665 192.5942)"/><ellipse cx="257.3" cy="48.6" fill="#FCE100" rx="1" ry="1" transform="matrix(0.7071 -0.7071 0.7071 0.7071 41.0022 196.1301)"/><ellipse cx="260.8" cy="52.1" fill="#FCE100" rx="1" ry="1" transform="matrix(0.7071 -0.7071 0.7071 0.7071 39.5343 199.6604)"/><ellipse cx="264.3" cy="55.6" fill="#FCE100" rx="1" ry="1" transform="matrix(0.7071 -0.7071 0.7071 0.7071 38.0729 203.2004)"/><path fill="#FCE100" d="M267.2,58.5c-0.4,0.4-0.4,1,0,1.4c0.3,0.3,0.6,0.3,1,0.2c0.2-0.4,0.4-0.8,0.7-1.3c0-0.1-0.1-0.3-0.2-0.4	C268.2,58.1,267.5,58.1,267.2,58.5z"/><ellipse cx="221.9" cy="6.1" fill="#FCE100" rx="1" ry="1" transform="matrix(0.7071 -0.7071 0.7071 0.7071 60.6469 158.7039)"/><ellipse cx="225.4" cy="9.7" fill="#FCE100" rx="1" ry="1" transform="matrix(0.7071 -0.7071 0.7071 0.7071 59.1856 162.2426)"/><ellipse cx="229" cy="13.2" fill="#FCE100" rx="1" ry="1" transform="matrix(0.7071 -0.7071 0.7071 0.7071 57.7177 165.7742)"/><ellipse cx="232.5" cy="16.8" fill="#FCE100" rx="1" ry="1" transform="matrix(0.7071 -0.7071 0.7071 0.7071 56.2534 169.31)"/><ellipse cx="236" cy="20.3" fill="#FCE100" rx="1" ry="1" transform="matrix(0.7071 -0.7071 0.7071 0.7071 54.7855 172.8413)"/><ellipse cx="239.6" cy="23.8" fill="#FCE100" rx="1" ry="1" transform="matrix(0.7071 -0.7071 0.7071 0.7071 53.3243 176.3811)"/><ellipse cx="243.1" cy="27.4" fill="#FCE100" rx="1" ry="1" transform="matrix(0.7071 -0.7071 0.7071 0.7071 51.8633 179.9211)"/><ellipse cx="246.6" cy="30.9" fill="#FCE100" rx="1" ry="1" transform="matrix(0.7071 -0.7071 0.7071 0.7071 50.3954 183.4521)"/><ellipse cx="250.2" cy="34.4" fill="#FCE100" rx="1" ry="1" transform="matrix(0.7071 -0.7071 0.7071 0.7071 48.9278 186.9836)"/><ellipse cx="253.7" cy="38" fill="#FCE100" rx="1" ry="1" transform="matrix(0.7071 -0.7071 0.7071 0.7071 47.4664 190.5231)"/><ellipse cx="257.3" cy="41.5" fill="#FCE100" rx="1" ry="1" transform="matrix(0.7071 -0.7071 0.7071 0.7071 46.0054 194.0636)"/><ellipse cx="260.8" cy="45" fill="#FCE100" rx="1" ry="1" transform="matrix(0.7071 -0.7071 0.7071 0.7071 44.5343 197.5895)"/><ellipse cx="264.3" cy="48.6" fill="#FCE100" rx="1" ry="1" transform="matrix(0.7071 -0.7071 0.7071 0.7071 43.0729 201.1293)"/><ellipse cx="267.9" cy="52.1" fill="#FCE100" rx="1" ry="1" transform="matrix(0.7071 -0.7071 0.7071 0.7071 41.6089 204.6659)"/><path fill="#FCE100" d="M224.7,3.3c0.4,0.4,1,0.4,1.4,0c0.4-0.4,0.4-1,0-1.4c-0.1-0.1-0.3-0.2-0.4-0.2c-0.3,0.1-0.6,0.1-0.9,0.2	c0,0-0.1,0-0.1,0.1C224.3,2.3,224.3,2.9,224.7,3.3z"/><ellipse cx="229" cy="6.1" fill="#FCE100" rx="1" ry="1" transform="matrix(0.7071 -0.7071 0.7071 0.7071 62.7177 163.7031)"/><ellipse cx="232.5" cy="9.7" fill="#FCE100" rx="1" ry="1" transform="matrix(0.7071 -0.7071 0.7071 0.7071 61.2533 167.239)"/><ellipse cx="236" cy="13.2" fill="#FCE100" rx="1" ry="1" transform="matrix(0.7071 -0.7071 0.7071 0.7071 59.7887 170.7741)"/><ellipse cx="239.6" cy="16.8" fill="#FCE100" rx="1" ry="1" transform="matrix(0.7071 -0.7071 0.7071 0.7071 58.3244 174.31)"/><ellipse cx="243.1" cy="20.3" fill="#FCE100" rx="1" ry="1" transform="matrix(0.7071 -0.7071 0.7071 0.7071 56.8601 177.8458)"/><ellipse cx="246.6" cy="23.8" fill="#FCE100" rx="1" ry="1" transform="matrix(0.7071 -0.7071 0.7071 0.7071 55.3954 181.381)"/><ellipse cx="250.2" cy="27.4" fill="#FCE100" rx="1" ry="1" transform="matrix(0.7071 -0.7071 0.7071 0.7071 53.9277 184.9127)"/><ellipse cx="253.7" cy="30.9" fill="#FCE100" rx="1" ry="1" transform="matrix(0.7071 -0.7071 0.7071 0.7071 52.4665 188.4521)"/><ellipse cx="257.3" cy="34.4" fill="#FCE100" rx="1" ry="1" transform="matrix(0.7071 -0.7071 0.7071 0.7071 51.0021 191.9879)"/><ellipse cx="260.8" cy="38" fill="#FCE100" rx="1" ry="1" transform="matrix(0.7071 -0.7071 0.7071 0.7071 49.5341 195.5185)"/><ellipse cx="264.3" cy="41.5" fill="#FCE100" rx="1" ry="1" transform="matrix(0.7071 -0.7071 0.7071 0.7071 48.0763 199.0629)"/><ellipse cx="267.9" cy="45" fill="#FCE100" rx="1" ry="1" transform="matrix(0.7071 -0.7071 0.7071 0.7071 46.6089 202.5948)"/><path fill="#FCE100" d="M272.1,47.9c-0.4-0.4-1-0.4-1.4,0s-0.4,1,0,1.4c0.4,0.4,1,0.4,1.4,0c0,0,0-0.1,0.1-0.1	c0.1-0.3,0.1-0.6,0.2-0.9C272.3,48.1,272.2,48,272.1,47.9z"/><ellipse cx="232.5" cy="2.6" fill="#FCE100" rx="1" ry="1" transform="matrix(0.7071 -0.7071 0.7071 0.7071 66.2568 165.1715)"/><ellipse cx="236" cy="6.1" fill="#FCE100" rx="1" ry="1" transform="matrix(0.7071 -0.7071 0.7071 0.7071 64.7887 168.7031)"/><ellipse cx="239.6" cy="9.7" fill="#FCE100" rx="1" ry="1" transform="matrix(0.7071 -0.7071 0.7071 0.7071 63.3244 172.239)"/><ellipse cx="243.1" cy="13.2" fill="#FCE100" rx="1" ry="1" transform="matrix(0.7071 -0.7071 0.7071 0.7071 61.8636 175.7787)"/><ellipse cx="246.6" cy="16.8" fill="#FCE100" rx="1" ry="1" transform="matrix(0.7071 -0.7071 0.7071 0.7071 60.392 179.3059)"/><ellipse cx="250.2" cy="20.3" fill="#FCE100" rx="1" ry="1" transform="matrix(0.7071 -0.7071 0.7071 0.7071 58.9312 182.8458)"/><ellipse cx="253.7" cy="23.8" fill="#FCE100" rx="1" ry="1" transform="matrix(0.7071 -0.7071 0.7071 0.7071 57.4699 186.3852)"/><ellipse cx="257.3" cy="27.4" fill="#FCE100" rx="1" ry="1" transform="matrix(0.7071 -0.7071 0.7071 0.7071 56.0056 189.9212)"/><ellipse cx="260.8" cy="30.9" fill="#FCE100" rx="1" ry="1" transform="matrix(0.7071 -0.7071 0.7071 0.7071 54.534 193.4476)"/><ellipse cx="264.3" cy="34.4" fill="#FCE100" rx="1" ry="1" transform="matrix(0.7071 -0.7071 0.7071 0.7071 53.0729 196.9872)"/><ellipse cx="267.9" cy="38" fill="#FCE100" rx="1" ry="1" transform="matrix(0.7071 -0.7071 0.7071 0.7071 51.6124 200.5284)"/><ellipse cx="271.4" cy="41.5" fill="#FCE100" rx="1" ry="1" transform="matrix(0.7071 -0.7071 0.7071 0.7071 50.1442 204.0589)"/><ellipse cx="239.6" cy="2.6" fill="#FCE100" rx="1" ry="1" transform="matrix(0.7071 -0.7071 0.7071 0.7071 68.3244 170.1679)"/><ellipse cx="243.1" cy="6.1" fill="#FCE100" rx="1" ry="1" transform="matrix(0.7071 -0.7071 0.7071 0.7071 66.8637 173.7075)"/><ellipse cx="246.6" cy="9.7" fill="#FCE100" rx="1" ry="1" transform="matrix(0.7071 -0.7071 0.7071 0.7071 65.3954 177.2389)"/><ellipse cx="250.2" cy="13.2" fill="#FCE100" rx="1" ry="1" transform="matrix(0.7071 -0.7071 0.7071 0.7071 63.9311 180.7748)"/><ellipse cx="253.7" cy="16.8" fill="#FCE100" rx="1" ry="1" transform="matrix(0.7071 -0.7071 0.7071 0.7071 62.4701 184.314)"/><ellipse cx="257.3" cy="20.3" fill="#FCE100" rx="1" ry="1" transform="matrix(0.7071 -0.7071 0.7071 0.7071 61.0058 187.85)"/><ellipse cx="260.8" cy="23.8" fill="#FCE100" rx="1" ry="1" transform="matrix(0.7071 -0.7071 0.7071 0.7071 59.5375 191.381)"/><ellipse cx="264.3" cy="27.4" fill="#FCE100" rx="1" ry="1" transform="matrix(0.7071 -0.7071 0.7071 0.7071 58.0765 194.9206)"/><ellipse cx="267.9" cy="30.9" fill="#FCE100" rx="1" ry="1" transform="matrix(0.7071 -0.7071 0.7071 0.7071 56.6089 198.4527)"/><ellipse cx="271.4" cy="34.4" fill="#FCE100" rx="1" ry="1" transform="matrix(0.7071 -0.7071 0.7071 0.7071 55.1406 201.9832)"/><path fill="#FCE100" d="M247,3.5c-0.4-0.2-0.8-0.3-1.2-0.4c0,0.1,0.1,0.2,0.1,0.2C246.2,3.6,246.7,3.7,247,3.5z"/><ellipse cx="250.2" cy="6.1" fill="#FCE100" rx="1" ry="1" transform="matrix(0.7071 -0.7071 0.7071 0.7071 68.9311 178.7037)"/><ellipse cx="253.7" cy="9.7" fill="#FCE100" rx="1" ry="1" transform="matrix(0.7071 -0.7071 0.7071 0.7071 67.4702 182.2429)"/><ellipse cx="257.3" cy="13.2" fill="#FCE100" rx="1" ry="1" transform="matrix(0.7071 -0.7071 0.7071 0.7071 66.0059 185.7789)"/><ellipse cx="260.8" cy="16.8" fill="#FCE100" rx="1" ry="1" transform="matrix(0.7071 -0.7071 0.7071 0.7071 64.5339 189.3056)"/><ellipse cx="264.3" cy="20.3" fill="#FCE100" rx="1" ry="1" transform="matrix(0.7071 -0.7071 0.7071 0.7071 63.073 192.845)"/><ellipse cx="267.9" cy="23.8" fill="#FCE100" rx="1" ry="1" transform="matrix(0.7071 -0.7071 0.7071 0.7071 61.6125 196.3861)"/><path fill="#FCE100" d="M270.7,28.1c0.1,0.1,0.1,0.1,0.2,0.1c-0.1-0.4-0.3-0.8-0.4-1.2C270.3,27.3,270.4,27.8,270.7,28.1z"/><g><path fill="#FFF" d="M81.5,177.5h-81v-81h81V177.5z M1.5,176.5h79v-79h-79V176.5z"/></g><g><path fill="#FFF" d="M329,81.5c-22.3,0-40.5-18.2-40.5-40.5S306.7,0.5,329,0.5s40.5,18.2,40.5,40.5S351.3,81.5,329,81.5z M329,1.5c-21.8,0-39.5,17.7-39.5,39.5s17.7,39.5,39.5,39.5s39.5-17.7,39.5-39.5S350.8,1.5,329,1.5z"/></g><g><circle cx="100" cy="99" r="1" fill="#00B7C3"/></g><g><circle cx="100" cy="114" r="1" fill="#00B7C3"/></g><g><circle cx="100" cy="129" r="1" fill="#00B7C3"/></g><g><circle cx="100" cy="144" r="1" fill="#00B7C3"/></g><g><circle cx="100" cy="159" r="1" fill="#00B7C3"/></g><g><circle cx="100" cy="174" r="1" fill="#00B7C3"/></g><g><circle cx="115" cy="99" r="1" fill="#00B7C3"/></g><g><circle cx="115" cy="114" r="1" fill="#00B7C3"/></g><g><circle cx="115" cy="129" r="1" fill="#00B7C3"/></g><g><circle cx="115" cy="144" r="1" fill="#00B7C3"/></g><g><circle cx="115" cy="159" r="1" fill="#00B7C3"/></g><g><circle cx="115" cy="174" r="1" fill="#00B7C3"/></g><g><circle cx="130" cy="99" r="1" fill="#00B7C3"/></g><g><circle cx="130" cy="114" r="1" fill="#00B7C3"/></g><g><circle cx="130" cy="129" r="1" fill="#00B7C3"/></g><g><circle cx="130" cy="144" r="1" fill="#00B7C3"/></g><g><circle cx="130" cy="159" r="1" fill="#00B7C3"/></g><g><circle cx="130" cy="174" r="1" fill="#00B7C3"/></g><g><circle cx="145" cy="99" r="1" fill="#00B7C3"/></g><g><circle cx="145" cy="114" r="1" fill="#00B7C3"/></g><g><circle cx="145" cy="129" r="1" fill="#00B7C3"/></g><g><circle cx="145" cy="144" r="1" fill="#00B7C3"/></g><g><circle cx="145" cy="159" r="1" fill="#00B7C3"/></g><g><circle cx="145" cy="174" r="1" fill="#00B7C3"/></g><g><circle cx="160" cy="99" r="1" fill="#00B7C3"/></g><g><circle cx="160" cy="114" r="1" fill="#00B7C3"/></g><g><circle cx="160" cy="129" r="1" fill="#00B7C3"/></g><g><circle cx="160" cy="144" r="1" fill="#00B7C3"/></g><g><circle cx="160" cy="159" r="1" fill="#00B7C3"/></g><g><circle cx="160" cy="174" r="1" fill="#00B7C3"/></g><g><circle cx="175" cy="99" r="1" fill="#00B7C3"/></g><g><circle cx="175" cy="114" r="1" fill="#00B7C3"/></g><g><circle cx="175" cy="129" r="1" fill="#00B7C3"/></g><g><circle cx="175" cy="144" r="1" fill="#00B7C3"/></g><g><circle cx="175" cy="159" r="1" fill="#00B7C3"/></g><g><circle cx="175" cy="174" r="1" fill="#00B7C3"/></g><g><circle cx="41" cy="41" r="40" fill="#50E6FF"/></g><g><rect width="80" height="80" x="289" y="97" fill="#004E8C"/></g><g><g><path fill="#0078D4" d="M108.7,69.3L108.7,69.3c3,3,6.4,5.5,10.2,7.4L101.3,59C103.2,62.8,105.7,66.3,108.7,69.3z"/><path fill="#0078D4" d="M98.1,50.1l29.8,29.8c1.1,0.3,2.3,0.5,3.5,0.7L97.4,46.7C97.6,47.8,97.8,49,98.1,50.1z"/><path fill="#0078D4" d="M97,40.6L137.4,81c0.9,0,1.8-0.1,2.7-0.1l-43-43C97.1,38.8,97,39.7,97,40.6z"/><path fill="#0078D4" d="M97.8,32.9l47.3,47.3c0.8-0.2,1.5-0.3,2.3-0.5l-49-49C98.2,31.4,98,32.2,97.8,32.9z"/><path fill="#0078D4" d="M99.8,26.4l51.8,51.8c0.7-0.3,1.3-0.5,2-0.8l-53-53C100.3,25.1,100,25.7,99.8,26.4z"/><path fill="#0078D4" d="M102.5,20.7l54.8,54.8c0.6-0.3,1.2-0.7,1.7-1.1l-55.4-55.4C103.3,19.5,102.9,20.1,102.5,20.7z"/><path fill="#0078D4" d="M106,15.7L162.3,72c0.5-0.4,1-0.9,1.5-1.3l-56.5-56.5C106.9,14.7,106.5,15.2,106,15.7z"/><path fill="#0078D4" d="M110.2,11.3l56.5,56.5c0.4-0.5,0.9-1,1.3-1.5L111.7,10C111.2,10.5,110.7,10.9,110.2,11.3z"/><path fill="#0078D4" d="M114.9,7.6l55.4,55.4c0.4-0.6,0.7-1.2,1.1-1.7L116.7,6.5C116.1,6.9,115.5,7.3,114.9,7.6z"/><path fill="#0078D4" d="M120.4,4.6l53,53c0.3-0.7,0.6-1.3,0.8-2L122.4,3.8C121.7,4,121.1,4.3,120.4,4.6z"/><path fill="#0078D4" d="M126.6,2.4l49,49c0.2-0.8,0.4-1.5,0.5-2.3L128.9,1.8C128.2,2,127.4,2.2,126.6,2.4z"/><path fill="#0078D4" d="M133.9,1.1l43,43c0.1-0.9,0.1-1.8,0.1-2.7L136.6,1C135.7,1,134.8,1.1,133.9,1.1z"/><path fill="#0078D4" d="M142.7,1.4l33.9,33.9c-0.2-1.2-0.4-2.3-0.7-3.5L146.1,2.1C145,1.8,143.8,1.6,142.7,1.4z"/></g><path fill="#0078D4" d="M155,5.3L172.7,23C168.8,15.4,162.6,9.2,155,5.3z"/></g><g><rect width="2" height="80" x="193" y="98" fill="#4F6BED"/></g><g><rect width="2" height="80" x="199" y="98" fill="#4F6BED"/></g><g><rect width="2" height="80" x="205" y="98" fill="#4F6BED"/></g><g><rect width="2" height="80" x="211" y="98" fill="#4F6BED"/></g><g><rect width="2" height="80" x="217" y="98" fill="#4F6BED"/></g><g><rect width="2" height="80" x="223" y="98" fill="#4F6BED"/></g><g><rect width="2" height="80" x="229" y="98" fill="#4F6BED"/></g><g><rect width="2" height="80" x="235" y="98" fill="#4F6BED"/></g><g><rect width="2" height="80" x="241" y="98" fill="#4F6BED"/></g><g><rect width="2" height="80" x="247" y="98" fill="#4F6BED"/></g><g><rect width="2" height="80" x="253" y="98" fill="#4F6BED"/></g><g><rect width="2" height="80" x="259" y="98" fill="#4F6BED"/></g><g><rect width="2" height="80" x="265" y="98" fill="#4F6BED"/></g><g><rect width="2" height="80" x="271" y="98" fill="#4F6BED"/></g></svg>