<svg xmlns="http://www.w3.org/2000/svg" width="446" height="100" fill="none" viewBox="0 0 446 100"><rect width="80" height="80" x="116" fill="#00B7C3"/><circle cx="138" cy="23" r="1" fill="#038387"/><circle cx="138" cy="38" r="1" fill="#038387"/><circle cx="138" cy="53" r="1" fill="#038387"/><circle cx="138" cy="68" r="1" fill="#038387"/><circle cx="138" cy="83" r="1" fill="#038387"/><circle cx="138" cy="98" r="1" fill="#038387"/><circle cx="153" cy="23" r="1" fill="#038387"/><circle cx="153" cy="38" r="1" fill="#038387"/><circle cx="153" cy="53" r="1" fill="#038387"/><circle cx="153" cy="68" r="1" fill="#038387"/><circle cx="153" cy="83" r="1" fill="#038387"/><circle cx="153" cy="98" r="1" fill="#038387"/><circle cx="168" cy="23" r="1" fill="#038387"/><circle cx="168" cy="38" r="1" fill="#038387"/><circle cx="168" cy="53" r="1" fill="#038387"/><circle cx="168" cy="68" r="1" fill="#038387"/><circle cx="168" cy="83" r="1" fill="#038387"/><circle cx="168" cy="98" r="1" fill="#038387"/><circle cx="183" cy="23" r="1" fill="#038387"/><circle cx="183" cy="38" r="1" fill="#038387"/><circle cx="183" cy="53" r="1" fill="#038387"/><circle cx="183" cy="68" r="1" fill="#038387"/><circle cx="183" cy="83" r="1" fill="#038387"/><circle cx="183" cy="98" r="1" fill="#038387"/><circle cx="198" cy="23" r="1" fill="#038387"/><circle cx="198" cy="38" r="1" fill="#038387"/><circle cx="198" cy="53" r="1" fill="#038387"/><circle cx="198" cy="68" r="1" fill="#038387"/><circle cx="198" cy="83" r="1" fill="#038387"/><circle cx="198" cy="98" r="1" fill="#038387"/><circle cx="213" cy="23" r="1" fill="#038387"/><circle cx="213" cy="38" r="1" fill="#038387"/><circle cx="213" cy="53" r="1" fill="#038387"/><circle cx="213" cy="68" r="1" fill="#038387"/><circle cx="213" cy="83" r="1" fill="#038387"/><circle cx="213" cy="98" r="1" fill="#038387"/><rect width="80" height="80" x="230" fill="#4F6BED"/><rect width="2" height="80" x="250" y="100" fill="#004E8C" transform="rotate(-90 250 100)"/><rect width="2" height="80" x="250" y="94" fill="#004E8C" transform="rotate(-90 250 94)"/><rect width="2" height="80" x="250" y="88" fill="#004E8C" transform="rotate(-90 250 88)"/><rect width="2" height="80" x="250" y="82" fill="#004E8C" transform="rotate(-90 250 82)"/><rect width="2" height="80" x="250" y="76" fill="#004E8C" transform="rotate(-90 250 76)"/><rect width="2" height="80" x="250" y="70" fill="#004E8C" transform="rotate(-90 250 70)"/><rect width="2" height="80" x="250" y="64" fill="#004E8C" transform="rotate(-90 250 64)"/><rect width="2" height="80" x="250" y="58" fill="#004E8C" transform="rotate(-90 250 58)"/><rect width="2" height="80" x="250" y="52" fill="#004E8C" transform="rotate(-90 250 52)"/><rect width="2" height="80" x="250" y="46" fill="#004E8C" transform="rotate(-90 250 46)"/><rect width="2" height="80" x="250" y="40" fill="#004E8C" transform="rotate(-90 250 40)"/><rect width="2" height="80" x="250" y="34" fill="#004E8C" transform="rotate(-90 250 34)"/><rect width="2" height="80" x="250" y="28" fill="#004E8C" transform="rotate(-90 250 28)"/><rect width="2" height="80" x="250" y="22" fill="#004E8C" transform="rotate(-90 250 22)"/><circle cx="40" cy="40" r="40" fill="#0078D4"/><mask id="mask0" width="80" height="80" x="20" y="20" mask-type="alpha" maskUnits="userSpaceOnUse"><circle cx="60" cy="60" r="40" fill="#fff"/></mask><g mask="url(#mask0)"><rect width="2" height="80" x="3.432" y="60" fill="#50E6FF" transform="rotate(-45 3.43164 60)"/><rect width="2" height="80" x="7.674" y="55.757" fill="#50E6FF" transform="rotate(-45 7.67383 55.7573)"/><rect width="2" height="80" x="11.916" y="51.515" fill="#50E6FF" transform="rotate(-45 11.916 51.5148)"/><rect width="2" height="80" x="16.16" y="47.272" fill="#50E6FF" transform="rotate(-45 16.1602 47.2721)"/><rect width="2" height="80" x="20.402" y="43.029" fill="#50E6FF" transform="rotate(-45 20.4023 43.0295)"/><rect width="2" height="80" x="24.645" y="38.787" fill="#50E6FF" transform="rotate(-45 24.6445 38.7869)"/><rect width="2" height="80" x="28.887" y="34.544" fill="#50E6FF" transform="rotate(-45 28.8867 34.5442)"/><rect width="2" height="80" x="33.131" y="30.302" fill="#50E6FF" transform="rotate(-45 33.1309 30.3015)"/><rect width="2" height="80" x="37.373" y="26.059" fill="#50E6FF" transform="rotate(-45 37.373 26.0588)"/><rect width="2" height="80" x="41.615" y="21.816" fill="#50E6FF" transform="rotate(-45 41.6152 21.8162)"/><rect width="2" height="80" x="45.857" y="17.573" fill="#50E6FF" transform="rotate(-45 45.8574 17.5735)"/><rect width="2" height="80" x="50.102" y="13.331" fill="#50E6FF" transform="rotate(-45 50.1016 13.3311)"/><rect width="2" height="80" x="54.344" y="9.088" fill="#50E6FF" transform="rotate(-45 54.3438 9.08838)"/><rect width="2" height="80" x="58.586" y="4.846" fill="#50E6FF" transform="rotate(-45 58.5859 4.8457)"/></g><circle cx="386" cy="40" r="40" fill="#50E6FF"/><mask id="mask1" width="80" height="80" x="366" y="20" mask-type="alpha" maskUnits="userSpaceOnUse"><circle cx="406" cy="60" r="40" fill="#4F6BED"/></mask><g mask="url(#mask1)"><circle cx="368" cy="23" r="1" fill="#4F6BED"/><circle cx="368" cy="28" r="1" fill="#4F6BED"/><circle cx="368" cy="33" r="1" fill="#4F6BED"/><circle cx="368" cy="38" r="1" fill="#4F6BED"/><circle cx="368" cy="43" r="1" fill="#4F6BED"/><circle cx="368" cy="48" r="1" fill="#4F6BED"/><circle cx="368" cy="53" r="1" fill="#4F6BED"/><circle cx="368" cy="58" r="1" fill="#4F6BED"/><circle cx="368" cy="63" r="1" fill="#4F6BED"/><circle cx="368" cy="68" r="1" fill="#4F6BED"/><circle cx="368" cy="73" r="1" fill="#4F6BED"/><circle cx="368" cy="78" r="1" fill="#4F6BED"/><circle cx="368" cy="83" r="1" fill="#4F6BED"/><circle cx="368" cy="88" r="1" fill="#4F6BED"/><circle cx="368" cy="93" r="1" fill="#4F6BED"/><circle cx="368" cy="98" r="1" fill="#4F6BED"/><circle cx="373" cy="23" r="1" fill="#4F6BED"/><circle cx="373" cy="28" r="1" fill="#4F6BED"/><circle cx="373" cy="33" r="1" fill="#4F6BED"/><circle cx="373" cy="38" r="1" fill="#4F6BED"/><circle cx="373" cy="43" r="1" fill="#4F6BED"/><circle cx="373" cy="48" r="1" fill="#4F6BED"/><circle cx="373" cy="53" r="1" fill="#4F6BED"/><circle cx="373" cy="58" r="1" fill="#4F6BED"/><circle cx="373" cy="63" r="1" fill="#4F6BED"/><circle cx="373" cy="68" r="1" fill="#4F6BED"/><circle cx="373" cy="73" r="1" fill="#4F6BED"/><circle cx="373" cy="78" r="1" fill="#4F6BED"/><circle cx="373" cy="83" r="1" fill="#4F6BED"/><circle cx="373" cy="88" r="1" fill="#4F6BED"/><circle cx="373" cy="93" r="1" fill="#4F6BED"/><circle cx="373" cy="98" r="1" fill="#4F6BED"/><circle cx="378" cy="23" r="1" fill="#4F6BED"/><circle cx="378" cy="28" r="1" fill="#4F6BED"/><circle cx="378" cy="33" r="1" fill="#4F6BED"/><circle cx="378" cy="38" r="1" fill="#4F6BED"/><circle cx="378" cy="43" r="1" fill="#4F6BED"/><circle cx="378" cy="48" r="1" fill="#4F6BED"/><circle cx="378" cy="53" r="1" fill="#4F6BED"/><circle cx="378" cy="58" r="1" fill="#4F6BED"/><circle cx="378" cy="63" r="1" fill="#4F6BED"/><circle cx="378" cy="68" r="1" fill="#4F6BED"/><circle cx="378" cy="73" r="1" fill="#4F6BED"/><circle cx="378" cy="78" r="1" fill="#4F6BED"/><circle cx="378" cy="83" r="1" fill="#4F6BED"/><circle cx="378" cy="88" r="1" fill="#4F6BED"/><circle cx="378" cy="93" r="1" fill="#4F6BED"/><circle cx="378" cy="98" r="1" fill="#4F6BED"/><circle cx="383" cy="23" r="1" fill="#4F6BED"/><circle cx="383" cy="28" r="1" fill="#4F6BED"/><circle cx="383" cy="33" r="1" fill="#4F6BED"/><circle cx="383" cy="38" r="1" fill="#4F6BED"/><circle cx="383" cy="43" r="1" fill="#4F6BED"/><circle cx="383" cy="48" r="1" fill="#4F6BED"/><circle cx="383" cy="53" r="1" fill="#4F6BED"/><circle cx="383" cy="58" r="1" fill="#4F6BED"/><circle cx="383" cy="63" r="1" fill="#4F6BED"/><circle cx="383" cy="68" r="1" fill="#4F6BED"/><circle cx="383" cy="73" r="1" fill="#4F6BED"/><circle cx="383" cy="78" r="1" fill="#4F6BED"/><circle cx="383" cy="83" r="1" fill="#4F6BED"/><circle cx="383" cy="88" r="1" fill="#4F6BED"/><circle cx="383" cy="93" r="1" fill="#4F6BED"/><circle cx="383" cy="98" r="1" fill="#4F6BED"/><circle cx="388" cy="23" r="1" fill="#4F6BED"/><circle cx="388" cy="28" r="1" fill="#4F6BED"/><circle cx="388" cy="33" r="1" fill="#4F6BED"/><circle cx="388" cy="38" r="1" fill="#4F6BED"/><circle cx="388" cy="43" r="1" fill="#4F6BED"/><circle cx="388" cy="48" r="1" fill="#4F6BED"/><circle cx="388" cy="53" r="1" fill="#4F6BED"/><circle cx="388" cy="58" r="1" fill="#4F6BED"/><circle cx="388" cy="63" r="1" fill="#4F6BED"/><circle cx="388" cy="68" r="1" fill="#4F6BED"/><circle cx="388" cy="73" r="1" fill="#4F6BED"/><circle cx="388" cy="78" r="1" fill="#4F6BED"/><circle cx="388" cy="83" r="1" fill="#4F6BED"/><circle cx="388" cy="88" r="1" fill="#4F6BED"/><circle cx="388" cy="93" r="1" fill="#4F6BED"/><circle cx="388" cy="98" r="1" fill="#4F6BED"/><circle cx="393" cy="23" r="1" fill="#4F6BED"/><circle cx="393" cy="28" r="1" fill="#4F6BED"/><circle cx="393" cy="33" r="1" fill="#4F6BED"/><circle cx="393" cy="38" r="1" fill="#4F6BED"/><circle cx="393" cy="43" r="1" fill="#4F6BED"/><circle cx="393" cy="48" r="1" fill="#4F6BED"/><circle cx="393" cy="53" r="1" fill="#4F6BED"/><circle cx="393" cy="58" r="1" fill="#4F6BED"/><circle cx="393" cy="63" r="1" fill="#4F6BED"/><circle cx="393" cy="68" r="1" fill="#4F6BED"/><circle cx="393" cy="73" r="1" fill="#4F6BED"/><circle cx="393" cy="78" r="1" fill="#4F6BED"/><circle cx="393" cy="83" r="1" fill="#4F6BED"/><circle cx="393" cy="88" r="1" fill="#4F6BED"/><circle cx="393" cy="93" r="1" fill="#4F6BED"/><circle cx="393" cy="98" r="1" fill="#4F6BED"/><circle cx="398" cy="23" r="1" fill="#4F6BED"/><circle cx="398" cy="28" r="1" fill="#4F6BED"/><circle cx="398" cy="33" r="1" fill="#4F6BED"/><circle cx="398" cy="38" r="1" fill="#4F6BED"/><circle cx="398" cy="43" r="1" fill="#4F6BED"/><circle cx="398" cy="48" r="1" fill="#4F6BED"/><circle cx="398" cy="53" r="1" fill="#4F6BED"/><circle cx="398" cy="58" r="1" fill="#4F6BED"/><circle cx="398" cy="63" r="1" fill="#4F6BED"/><circle cx="398" cy="68" r="1" fill="#4F6BED"/><circle cx="398" cy="73" r="1" fill="#4F6BED"/><circle cx="398" cy="78" r="1" fill="#4F6BED"/><circle cx="398" cy="83" r="1" fill="#4F6BED"/><circle cx="398" cy="88" r="1" fill="#4F6BED"/><circle cx="398" cy="93" r="1" fill="#4F6BED"/><circle cx="398" cy="98" r="1" fill="#4F6BED"/><circle cx="403" cy="23" r="1" fill="#4F6BED"/><circle cx="403" cy="28" r="1" fill="#4F6BED"/><circle cx="403" cy="33" r="1" fill="#4F6BED"/><circle cx="403" cy="38" r="1" fill="#4F6BED"/><circle cx="403" cy="43" r="1" fill="#4F6BED"/><circle cx="403" cy="48" r="1" fill="#4F6BED"/><circle cx="403" cy="53" r="1" fill="#4F6BED"/><circle cx="403" cy="58" r="1" fill="#4F6BED"/><circle cx="403" cy="63" r="1" fill="#4F6BED"/><circle cx="403" cy="68" r="1" fill="#4F6BED"/><circle cx="403" cy="73" r="1" fill="#4F6BED"/><circle cx="403" cy="78" r="1" fill="#4F6BED"/><circle cx="403" cy="83" r="1" fill="#4F6BED"/><circle cx="403" cy="88" r="1" fill="#4F6BED"/><circle cx="403" cy="93" r="1" fill="#4F6BED"/><circle cx="403" cy="98" r="1" fill="#4F6BED"/><circle cx="408" cy="23" r="1" fill="#4F6BED"/><circle cx="408" cy="28" r="1" fill="#4F6BED"/><circle cx="408" cy="33" r="1" fill="#4F6BED"/><circle cx="408" cy="38" r="1" fill="#4F6BED"/><circle cx="408" cy="43" r="1" fill="#4F6BED"/><circle cx="408" cy="48" r="1" fill="#4F6BED"/><circle cx="408" cy="53" r="1" fill="#4F6BED"/><circle cx="408" cy="58" r="1" fill="#4F6BED"/><circle cx="408" cy="63" r="1" fill="#4F6BED"/><circle cx="408" cy="68" r="1" fill="#4F6BED"/><circle cx="408" cy="73" r="1" fill="#4F6BED"/><circle cx="408" cy="78" r="1" fill="#4F6BED"/><circle cx="408" cy="83" r="1" fill="#4F6BED"/><circle cx="408" cy="88" r="1" fill="#4F6BED"/><circle cx="408" cy="93" r="1" fill="#4F6BED"/><circle cx="408" cy="98" r="1" fill="#4F6BED"/><circle cx="413" cy="23" r="1" fill="#4F6BED"/><circle cx="413" cy="28" r="1" fill="#4F6BED"/><circle cx="413" cy="33" r="1" fill="#4F6BED"/><circle cx="413" cy="38" r="1" fill="#4F6BED"/><circle cx="413" cy="43" r="1" fill="#4F6BED"/><circle cx="413" cy="48" r="1" fill="#4F6BED"/><circle cx="413" cy="53" r="1" fill="#4F6BED"/><circle cx="413" cy="58" r="1" fill="#4F6BED"/><circle cx="413" cy="63" r="1" fill="#4F6BED"/><circle cx="413" cy="68" r="1" fill="#4F6BED"/><circle cx="413" cy="73" r="1" fill="#4F6BED"/><circle cx="413" cy="78" r="1" fill="#4F6BED"/><circle cx="413" cy="83" r="1" fill="#4F6BED"/><circle cx="413" cy="88" r="1" fill="#4F6BED"/><circle cx="413" cy="93" r="1" fill="#4F6BED"/><circle cx="413" cy="98" r="1" fill="#4F6BED"/><circle cx="418" cy="23" r="1" fill="#4F6BED"/><circle cx="418" cy="28" r="1" fill="#4F6BED"/><circle cx="418" cy="33" r="1" fill="#4F6BED"/><circle cx="418" cy="38" r="1" fill="#4F6BED"/><circle cx="418" cy="43" r="1" fill="#4F6BED"/><circle cx="418" cy="48" r="1" fill="#4F6BED"/><circle cx="418" cy="53" r="1" fill="#4F6BED"/><circle cx="418" cy="58" r="1" fill="#4F6BED"/><circle cx="418" cy="63" r="1" fill="#4F6BED"/><circle cx="418" cy="68" r="1" fill="#4F6BED"/><circle cx="418" cy="73" r="1" fill="#4F6BED"/><circle cx="418" cy="78" r="1" fill="#4F6BED"/><circle cx="418" cy="83" r="1" fill="#4F6BED"/><circle cx="418" cy="88" r="1" fill="#4F6BED"/><circle cx="418" cy="93" r="1" fill="#4F6BED"/><circle cx="418" cy="98" r="1" fill="#4F6BED"/><circle cx="423" cy="23" r="1" fill="#4F6BED"/><circle cx="423" cy="28" r="1" fill="#4F6BED"/><circle cx="423" cy="33" r="1" fill="#4F6BED"/><circle cx="423" cy="38" r="1" fill="#4F6BED"/><circle cx="423" cy="43" r="1" fill="#4F6BED"/><circle cx="423" cy="48" r="1" fill="#4F6BED"/><circle cx="423" cy="53" r="1" fill="#4F6BED"/><circle cx="423" cy="58" r="1" fill="#4F6BED"/><circle cx="423" cy="63" r="1" fill="#4F6BED"/><circle cx="423" cy="68" r="1" fill="#4F6BED"/><circle cx="423" cy="73" r="1" fill="#4F6BED"/><circle cx="423" cy="78" r="1" fill="#4F6BED"/><circle cx="423" cy="83" r="1" fill="#4F6BED"/><circle cx="423" cy="88" r="1" fill="#4F6BED"/><circle cx="423" cy="93" r="1" fill="#4F6BED"/><circle cx="423" cy="98" r="1" fill="#4F6BED"/><circle cx="428" cy="23" r="1" fill="#4F6BED"/><circle cx="428" cy="28" r="1" fill="#4F6BED"/><circle cx="428" cy="33" r="1" fill="#4F6BED"/><circle cx="428" cy="38" r="1" fill="#4F6BED"/><circle cx="428" cy="43" r="1" fill="#4F6BED"/><circle cx="428" cy="48" r="1" fill="#4F6BED"/><circle cx="428" cy="53" r="1" fill="#4F6BED"/><circle cx="428" cy="58" r="1" fill="#4F6BED"/><circle cx="428" cy="63" r="1" fill="#4F6BED"/><circle cx="428" cy="68" r="1" fill="#4F6BED"/><circle cx="428" cy="73" r="1" fill="#4F6BED"/><circle cx="428" cy="78" r="1" fill="#4F6BED"/><circle cx="428" cy="83" r="1" fill="#4F6BED"/><circle cx="428" cy="88" r="1" fill="#4F6BED"/><circle cx="428" cy="93" r="1" fill="#4F6BED"/><circle cx="428" cy="98" r="1" fill="#4F6BED"/><circle cx="433" cy="23" r="1" fill="#4F6BED"/><circle cx="433" cy="28" r="1" fill="#4F6BED"/><circle cx="433" cy="33" r="1" fill="#4F6BED"/><circle cx="433" cy="38" r="1" fill="#4F6BED"/><circle cx="433" cy="43" r="1" fill="#4F6BED"/><circle cx="433" cy="48" r="1" fill="#4F6BED"/><circle cx="433" cy="53" r="1" fill="#4F6BED"/><circle cx="433" cy="58" r="1" fill="#4F6BED"/><circle cx="433" cy="63" r="1" fill="#4F6BED"/><circle cx="433" cy="68" r="1" fill="#4F6BED"/><circle cx="433" cy="73" r="1" fill="#4F6BED"/><circle cx="433" cy="78" r="1" fill="#4F6BED"/><circle cx="433" cy="83" r="1" fill="#4F6BED"/><circle cx="433" cy="88" r="1" fill="#4F6BED"/><circle cx="433" cy="93" r="1" fill="#4F6BED"/><circle cx="433" cy="98" r="1" fill="#4F6BED"/><circle cx="438" cy="23" r="1" fill="#4F6BED"/><circle cx="438" cy="28" r="1" fill="#4F6BED"/><circle cx="438" cy="33" r="1" fill="#4F6BED"/><circle cx="438" cy="38" r="1" fill="#4F6BED"/><circle cx="438" cy="43" r="1" fill="#4F6BED"/><circle cx="438" cy="48" r="1" fill="#4F6BED"/><circle cx="438" cy="53" r="1" fill="#4F6BED"/><circle cx="438" cy="58" r="1" fill="#4F6BED"/><circle cx="438" cy="63" r="1" fill="#4F6BED"/><circle cx="438" cy="68" r="1" fill="#4F6BED"/><circle cx="438" cy="73" r="1" fill="#4F6BED"/><circle cx="438" cy="78" r="1" fill="#4F6BED"/><circle cx="438" cy="83" r="1" fill="#4F6BED"/><circle cx="438" cy="88" r="1" fill="#4F6BED"/><circle cx="438" cy="93" r="1" fill="#4F6BED"/><circle cx="438" cy="98" r="1" fill="#4F6BED"/><circle cx="443" cy="23" r="1" fill="#4F6BED"/><circle cx="443" cy="28" r="1" fill="#4F6BED"/><circle cx="443" cy="33" r="1" fill="#4F6BED"/><circle cx="443" cy="38" r="1" fill="#4F6BED"/><circle cx="443" cy="43" r="1" fill="#4F6BED"/><circle cx="443" cy="48" r="1" fill="#4F6BED"/><circle cx="443" cy="53" r="1" fill="#4F6BED"/><circle cx="443" cy="58" r="1" fill="#4F6BED"/><circle cx="443" cy="63" r="1" fill="#4F6BED"/><circle cx="443" cy="68" r="1" fill="#4F6BED"/><circle cx="443" cy="73" r="1" fill="#4F6BED"/><circle cx="443" cy="78" r="1" fill="#4F6BED"/><circle cx="443" cy="83" r="1" fill="#4F6BED"/><circle cx="443" cy="88" r="1" fill="#4F6BED"/><circle cx="443" cy="93" r="1" fill="#4F6BED"/><circle cx="443" cy="98" r="1" fill="#4F6BED"/></g></svg>