<svg xmlns="http://www.w3.org/2000/svg" width="156" height="156" fill="none" viewBox="0 0 156 156"><circle cx="153.974" cy="153.974" r="2.026" fill="#50E6FF" transform="rotate(-180 153.974 153.974)"/><circle cx="153.974" cy="143.844" r="2.026" fill="#50E6FF" transform="rotate(-180 153.974 143.844)"/><circle cx="153.974" cy="133.714" r="2.026" fill="#50E6FF" transform="rotate(-180 153.974 133.714)"/><circle cx="153.974" cy="123.584" r="2.026" fill="#50E6FF" transform="rotate(-180 153.974 123.584)"/><circle cx="153.974" cy="113.455" r="2.026" fill="#50E6FF" transform="rotate(-180 153.974 113.455)"/><circle cx="153.974" cy="103.325" r="2.026" fill="#50E6FF" transform="rotate(-180 153.974 103.325)"/><circle cx="153.974" cy="93.195" r="2.026" fill="#50E6FF" transform="rotate(-180 153.974 93.1948)"/><circle cx="153.974" cy="83.065" r="2.026" fill="#50E6FF" transform="rotate(-180 153.974 83.065)"/><circle cx="153.974" cy="72.935" r="2.026" fill="#50E6FF" transform="rotate(-180 153.974 72.9351)"/><circle cx="153.974" cy="62.805" r="2.026" fill="#50E6FF" transform="rotate(-180 153.974 62.8052)"/><circle cx="153.974" cy="52.675" r="2.026" fill="#50E6FF" transform="rotate(-180 153.974 52.6753)"/><circle cx="153.974" cy="42.545" r="2.026" fill="#50E6FF" transform="rotate(-180 153.974 42.5454)"/><circle cx="153.974" cy="32.416" r="2.026" fill="#50E6FF" transform="rotate(-180 153.974 32.4156)"/><circle cx="153.974" cy="22.286" r="2.026" fill="#50E6FF" transform="rotate(-180 153.974 22.2857)"/><circle cx="153.974" cy="12.156" r="2.026" fill="#50E6FF" transform="rotate(-180 153.974 12.1558)"/><circle cx="153.974" cy="2.026" r="2.026" fill="#50E6FF" transform="rotate(-180 153.974 2.02597)"/><circle cx="143.844" cy="153.974" r="2.026" fill="#50E6FF" transform="rotate(-180 143.844 153.974)"/><circle cx="143.844" cy="143.844" r="2.026" fill="#50E6FF" transform="rotate(-180 143.844 143.844)"/><circle cx="143.844" cy="133.714" r="2.026" fill="#50E6FF" transform="rotate(-180 143.844 133.714)"/><circle cx="143.844" cy="123.584" r="2.026" fill="#50E6FF" transform="rotate(-180 143.844 123.584)"/><circle cx="143.844" cy="113.455" r="2.026" fill="#50E6FF" transform="rotate(-180 143.844 113.455)"/><circle cx="143.844" cy="103.325" r="2.026" fill="#50E6FF" transform="rotate(-180 143.844 103.325)"/><circle cx="143.844" cy="93.195" r="2.026" fill="#50E6FF" transform="rotate(-180 143.844 93.1948)"/><circle cx="143.844" cy="83.065" r="2.026" fill="#50E6FF" transform="rotate(-180 143.844 83.065)"/><circle cx="143.844" cy="72.935" r="2.026" fill="#50E6FF" transform="rotate(-180 143.844 72.9351)"/><circle cx="143.844" cy="62.805" r="2.026" fill="#50E6FF" transform="rotate(-180 143.844 62.8052)"/><circle cx="143.844" cy="52.675" r="2.026" fill="#50E6FF" transform="rotate(-180 143.844 52.6753)"/><circle cx="143.844" cy="42.545" r="2.026" fill="#50E6FF" transform="rotate(-180 143.844 42.5454)"/><circle cx="143.844" cy="32.416" r="2.026" fill="#50E6FF" transform="rotate(-180 143.844 32.4156)"/><circle cx="143.844" cy="22.286" r="2.026" fill="#50E6FF" transform="rotate(-180 143.844 22.2857)"/><circle cx="143.844" cy="12.156" r="2.026" fill="#50E6FF" transform="rotate(-180 143.844 12.1558)"/><circle cx="133.714" cy="153.974" r="2.026" fill="#50E6FF" transform="rotate(-180 133.714 153.974)"/><circle cx="133.714" cy="143.844" r="2.026" fill="#50E6FF" transform="rotate(-180 133.714 143.844)"/><circle cx="133.714" cy="133.714" r="2.026" fill="#50E6FF" transform="rotate(-180 133.714 133.714)"/><circle cx="133.714" cy="123.584" r="2.026" fill="#50E6FF" transform="rotate(-180 133.714 123.584)"/><circle cx="133.714" cy="113.455" r="2.026" fill="#50E6FF" transform="rotate(-180 133.714 113.455)"/><circle cx="133.714" cy="103.325" r="2.026" fill="#50E6FF" transform="rotate(-180 133.714 103.325)"/><circle cx="133.714" cy="93.195" r="2.026" fill="#50E6FF" transform="rotate(-180 133.714 93.1948)"/><circle cx="133.714" cy="83.065" r="2.026" fill="#50E6FF" transform="rotate(-180 133.714 83.065)"/><circle cx="133.714" cy="72.935" r="2.026" fill="#50E6FF" transform="rotate(-180 133.714 72.9351)"/><circle cx="133.714" cy="62.805" r="2.026" fill="#50E6FF" transform="rotate(-180 133.714 62.8052)"/><circle cx="133.714" cy="52.675" r="2.026" fill="#50E6FF" transform="rotate(-180 133.714 52.6753)"/><circle cx="133.714" cy="42.545" r="2.026" fill="#50E6FF" transform="rotate(-180 133.714 42.5454)"/><circle cx="133.714" cy="32.416" r="2.026" fill="#50E6FF" transform="rotate(-180 133.714 32.4156)"/><circle cx="133.714" cy="22.286" r="2.026" fill="#50E6FF" transform="rotate(-180 133.714 22.2857)"/><circle cx="123.584" cy="153.974" r="2.026" fill="#50E6FF" transform="rotate(-180 123.584 153.974)"/><circle cx="123.584" cy="143.844" r="2.026" fill="#50E6FF" transform="rotate(-180 123.584 143.844)"/><circle cx="123.584" cy="133.714" r="2.026" fill="#50E6FF" transform="rotate(-180 123.584 133.714)"/><circle cx="123.584" cy="123.584" r="2.026" fill="#50E6FF" transform="rotate(-180 123.584 123.584)"/><circle cx="123.584" cy="113.455" r="2.026" fill="#50E6FF" transform="rotate(-180 123.584 113.455)"/><circle cx="123.584" cy="103.325" r="2.026" fill="#50E6FF" transform="rotate(-180 123.584 103.325)"/><circle cx="123.584" cy="93.195" r="2.026" fill="#50E6FF" transform="rotate(-180 123.584 93.1948)"/><circle cx="123.584" cy="83.065" r="2.026" fill="#50E6FF" transform="rotate(-180 123.584 83.065)"/><circle cx="123.584" cy="72.935" r="2.026" fill="#50E6FF" transform="rotate(-180 123.584 72.9351)"/><circle cx="123.584" cy="62.805" r="2.026" fill="#50E6FF" transform="rotate(-180 123.584 62.8052)"/><circle cx="123.584" cy="52.675" r="2.026" fill="#50E6FF" transform="rotate(-180 123.584 52.6753)"/><circle cx="123.584" cy="42.545" r="2.026" fill="#50E6FF" transform="rotate(-180 123.584 42.5454)"/><circle cx="123.584" cy="32.416" r="2.026" fill="#50E6FF" transform="rotate(-180 123.584 32.4156)"/><circle cx="113.454" cy="153.974" r="2.026" fill="#50E6FF" transform="rotate(-180 113.454 153.974)"/><circle cx="113.454" cy="143.844" r="2.026" fill="#50E6FF" transform="rotate(-180 113.454 143.844)"/><circle cx="113.454" cy="133.714" r="2.026" fill="#50E6FF" transform="rotate(-180 113.454 133.714)"/><circle cx="113.454" cy="123.584" r="2.026" fill="#50E6FF" transform="rotate(-180 113.454 123.584)"/><circle cx="113.454" cy="113.455" r="2.026" fill="#50E6FF" transform="rotate(-180 113.454 113.455)"/><circle cx="113.454" cy="103.325" r="2.026" fill="#50E6FF" transform="rotate(-180 113.454 103.325)"/><circle cx="113.454" cy="93.195" r="2.026" fill="#50E6FF" transform="rotate(-180 113.454 93.1948)"/><circle cx="113.454" cy="83.065" r="2.026" fill="#50E6FF" transform="rotate(-180 113.454 83.065)"/><circle cx="113.454" cy="72.935" r="2.026" fill="#50E6FF" transform="rotate(-180 113.454 72.9351)"/><circle cx="113.454" cy="62.805" r="2.026" fill="#50E6FF" transform="rotate(-180 113.454 62.8052)"/><circle cx="113.454" cy="52.675" r="2.026" fill="#50E6FF" transform="rotate(-180 113.454 52.6753)"/><circle cx="113.454" cy="42.545" r="2.026" fill="#50E6FF" transform="rotate(-180 113.454 42.5454)"/><circle cx="103.325" cy="153.974" r="2.026" fill="#50E6FF" transform="rotate(-180 103.325 153.974)"/><circle cx="103.325" cy="143.844" r="2.026" fill="#50E6FF" transform="rotate(-180 103.325 143.844)"/><circle cx="103.325" cy="133.714" r="2.026" fill="#50E6FF" transform="rotate(-180 103.325 133.714)"/><circle cx="103.325" cy="123.584" r="2.026" fill="#50E6FF" transform="rotate(-180 103.325 123.584)"/><circle cx="103.325" cy="113.455" r="2.026" fill="#50E6FF" transform="rotate(-180 103.325 113.455)"/><circle cx="103.325" cy="103.325" r="2.026" fill="#50E6FF" transform="rotate(-180 103.325 103.325)"/><circle cx="103.325" cy="93.195" r="2.026" fill="#50E6FF" transform="rotate(-180 103.325 93.1948)"/><circle cx="103.325" cy="83.065" r="2.026" fill="#50E6FF" transform="rotate(-180 103.325 83.065)"/><circle cx="103.325" cy="72.935" r="2.026" fill="#50E6FF" transform="rotate(-180 103.325 72.9351)"/><circle cx="103.325" cy="62.805" r="2.026" fill="#50E6FF" transform="rotate(-180 103.325 62.8052)"/><circle cx="103.325" cy="52.675" r="2.026" fill="#50E6FF" transform="rotate(-180 103.325 52.6753)"/><circle cx="93.195" cy="153.974" r="2.026" fill="#50E6FF" transform="rotate(-180 93.1947 153.974)"/><circle cx="93.195" cy="143.844" r="2.026" fill="#50E6FF" transform="rotate(-180 93.1947 143.844)"/><circle cx="93.195" cy="133.714" r="2.026" fill="#50E6FF" transform="rotate(-180 93.1947 133.714)"/><circle cx="93.195" cy="123.584" r="2.026" fill="#50E6FF" transform="rotate(-180 93.1947 123.584)"/><circle cx="93.195" cy="113.455" r="2.026" fill="#50E6FF" transform="rotate(-180 93.1947 113.455)"/><circle cx="93.195" cy="103.325" r="2.026" fill="#50E6FF" transform="rotate(-180 93.1947 103.325)"/><circle cx="93.195" cy="93.195" r="2.026" fill="#50E6FF" transform="rotate(-180 93.1947 93.1948)"/><circle cx="93.195" cy="83.065" r="2.026" fill="#50E6FF" transform="rotate(-180 93.1947 83.065)"/><circle cx="93.195" cy="72.935" r="2.026" fill="#50E6FF" transform="rotate(-180 93.1947 72.9351)"/><circle cx="93.195" cy="62.805" r="2.026" fill="#50E6FF" transform="rotate(-180 93.1947 62.8052)"/><circle cx="83.065" cy="153.974" r="2.026" fill="#50E6FF" transform="rotate(-180 83.0648 153.974)"/><circle cx="83.065" cy="143.844" r="2.026" fill="#50E6FF" transform="rotate(-180 83.0648 143.844)"/><circle cx="83.065" cy="133.714" r="2.026" fill="#50E6FF" transform="rotate(-180 83.0648 133.714)"/><circle cx="83.065" cy="123.584" r="2.026" fill="#50E6FF" transform="rotate(-180 83.0648 123.584)"/><circle cx="83.065" cy="113.455" r="2.026" fill="#50E6FF" transform="rotate(-180 83.0648 113.455)"/><circle cx="83.065" cy="103.325" r="2.026" fill="#50E6FF" transform="rotate(-180 83.0648 103.325)"/><circle cx="83.065" cy="93.195" r="2.026" fill="#50E6FF" transform="rotate(-180 83.0648 93.1948)"/><circle cx="83.065" cy="83.065" r="2.026" fill="#50E6FF" transform="rotate(-180 83.0648 83.065)"/><circle cx="83.065" cy="72.935" r="2.026" fill="#50E6FF" transform="rotate(-180 83.0648 72.9351)"/><circle cx="72.935" cy="153.974" r="2.026" fill="#50E6FF" transform="rotate(-180 72.935 153.974)"/><circle cx="72.935" cy="143.844" r="2.026" fill="#50E6FF" transform="rotate(-180 72.935 143.844)"/><circle cx="72.935" cy="133.714" r="2.026" fill="#50E6FF" transform="rotate(-180 72.935 133.714)"/><circle cx="72.935" cy="123.584" r="2.026" fill="#50E6FF" transform="rotate(-180 72.935 123.584)"/><circle cx="72.935" cy="113.455" r="2.026" fill="#50E6FF" transform="rotate(-180 72.935 113.455)"/><circle cx="72.935" cy="103.325" r="2.026" fill="#50E6FF" transform="rotate(-180 72.935 103.325)"/><circle cx="72.935" cy="93.195" r="2.026" fill="#50E6FF" transform="rotate(-180 72.935 93.1948)"/><circle cx="72.935" cy="83.065" r="2.026" fill="#50E6FF" transform="rotate(-180 72.935 83.065)"/><circle cx="62.805" cy="153.974" r="2.026" fill="#50E6FF" transform="rotate(-180 62.8051 153.974)"/><circle cx="62.805" cy="143.844" r="2.026" fill="#50E6FF" transform="rotate(-180 62.8051 143.844)"/><circle cx="62.805" cy="133.714" r="2.026" fill="#50E6FF" transform="rotate(-180 62.8051 133.714)"/><circle cx="62.805" cy="123.584" r="2.026" fill="#50E6FF" transform="rotate(-180 62.8051 123.584)"/><circle cx="62.805" cy="113.455" r="2.026" fill="#50E6FF" transform="rotate(-180 62.8051 113.455)"/><circle cx="62.805" cy="103.325" r="2.026" fill="#50E6FF" transform="rotate(-180 62.8051 103.325)"/><circle cx="62.805" cy="93.195" r="2.026" fill="#50E6FF" transform="rotate(-180 62.8051 93.1948)"/><circle cx="52.675" cy="153.974" r="2.026" fill="#50E6FF" transform="rotate(-180 52.6752 153.974)"/><circle cx="52.675" cy="143.844" r="2.026" fill="#50E6FF" transform="rotate(-180 52.6752 143.844)"/><circle cx="52.675" cy="133.714" r="2.026" fill="#50E6FF" transform="rotate(-180 52.6752 133.714)"/><circle cx="52.675" cy="123.584" r="2.026" fill="#50E6FF" transform="rotate(-180 52.6752 123.584)"/><circle cx="52.675" cy="113.455" r="2.026" fill="#50E6FF" transform="rotate(-180 52.6752 113.455)"/><circle cx="52.675" cy="103.325" r="2.026" fill="#50E6FF" transform="rotate(-180 52.6752 103.325)"/><circle cx="42.545" cy="153.974" r="2.026" fill="#50E6FF" transform="rotate(-180 42.5453 153.974)"/><circle cx="42.545" cy="143.844" r="2.026" fill="#50E6FF" transform="rotate(-180 42.5453 143.844)"/><circle cx="42.545" cy="133.714" r="2.026" fill="#50E6FF" transform="rotate(-180 42.5453 133.714)"/><circle cx="42.545" cy="123.584" r="2.026" fill="#50E6FF" transform="rotate(-180 42.5453 123.584)"/><circle cx="42.545" cy="113.455" r="2.026" fill="#50E6FF" transform="rotate(-180 42.5453 113.455)"/><circle cx="32.415" cy="153.974" r="2.026" fill="#50E6FF" transform="rotate(-180 32.4154 153.974)"/><circle cx="32.415" cy="143.844" r="2.026" fill="#50E6FF" transform="rotate(-180 32.4154 143.844)"/><circle cx="32.415" cy="133.714" r="2.026" fill="#50E6FF" transform="rotate(-180 32.4154 133.714)"/><circle cx="32.415" cy="123.584" r="2.026" fill="#50E6FF" transform="rotate(-180 32.4154 123.584)"/><circle cx="22.285" cy="153.974" r="2.026" fill="#50E6FF" transform="rotate(-180 22.2855 153.974)"/><circle cx="22.285" cy="143.844" r="2.026" fill="#50E6FF" transform="rotate(-180 22.2855 143.844)"/><circle cx="22.285" cy="133.714" r="2.026" fill="#50E6FF" transform="rotate(-180 22.2855 133.714)"/><circle cx="12.156" cy="153.974" r="2.026" fill="#50E6FF" transform="rotate(-180 12.1557 153.974)"/><circle cx="12.156" cy="143.844" r="2.026" fill="#50E6FF" transform="rotate(-180 12.1557 143.844)"/><circle cx="2.026" cy="153.974" r="2.026" fill="#50E6FF" transform="rotate(-180 2.02578 153.974)"/></svg>