<svg xmlns="http://www.w3.org/2000/svg" width="119" height="137" fill="none" viewBox="0 0 119 137"><rect width="80" height="80" fill="#4F6BED"/><rect width="10" height="80" x="76.748" y="73.181" fill="#8764B8" transform="rotate(45 76.748 73.1807)"/><mask id="mask0" width="80" height="80" x="39" y="39" mask-type="alpha" maskUnits="userSpaceOnUse"><circle cx="79" cy="79" r="40" fill="#fff"/></mask><g mask="url(#mask0)"><rect width="2" height="80" x="22.432" y="79" fill="#50E6FF" transform="rotate(-45 22.4316 79)"/><rect width="2" height="80" x="26.674" y="74.757" fill="#50E6FF" transform="rotate(-45 26.6738 74.7573)"/><rect width="2" height="80" x="30.917" y="70.515" fill="#50E6FF" transform="rotate(-45 30.917 70.5146)"/><rect width="2" height="80" x="35.159" y="66.272" fill="#50E6FF" transform="rotate(-45 35.1592 66.272)"/><rect width="2" height="80" x="39.402" y="62.029" fill="#50E6FF" transform="rotate(-45 39.4023 62.0295)"/><rect width="2" height="80" x="43.645" y="57.787" fill="#50E6FF" transform="rotate(-45 43.6445 57.7869)"/><rect width="2" height="80" x="47.888" y="53.544" fill="#50E6FF" transform="rotate(-45 47.8877 53.5442)"/><rect width="2" height="80" x="52.13" y="49.301" fill="#50E6FF" transform="rotate(-45 52.1299 49.3015)"/><rect width="2" height="80" x="56.373" y="45.059" fill="#50E6FF" transform="rotate(-45 56.373 45.0588)"/><rect width="2" height="80" x="60.615" y="40.816" fill="#50E6FF" transform="rotate(-45 60.6152 40.8162)"/><rect width="2" height="80" x="64.858" y="36.574" fill="#50E6FF" transform="rotate(-45 64.8584 36.5735)"/><rect width="2" height="80" x="69.101" y="32.331" fill="#50E6FF" transform="rotate(-45 69.1006 32.3311)"/><rect width="2" height="80" x="73.344" y="28.088" fill="#50E6FF" transform="rotate(-45 73.3438 28.0884)"/><rect width="2" height="80" x="77.586" y="23.846" fill="#50E6FF" transform="rotate(-45 77.5859 23.8457)"/></g></svg>