<svg xmlns="http://www.w3.org/2000/svg" width="181" height="180" fill="none" viewBox="0 0 181 180"><rect width="66.667" height="66.667" x="96.668" y="-.001" fill="#00B7C3"/><circle cx="114.999" cy="19.166" r=".833" fill="#4F6BED"/><circle cx="114.999" cy="31.666" r=".833" fill="#4F6BED"/><circle cx="114.999" cy="44.166" r=".833" fill="#4F6BED"/><circle cx="114.999" cy="56.666" r=".833" fill="#4F6BED"/><circle cx="114.999" cy="69.166" r=".833" fill="#4F6BED"/><circle cx="114.999" cy="81.666" r=".833" fill="#4F6BED"/><circle cx="127.501" cy="19.166" r=".833" fill="#4F6BED"/><circle cx="127.501" cy="31.666" r=".833" fill="#4F6BED"/><circle cx="127.501" cy="44.166" r=".833" fill="#4F6BED"/><circle cx="127.501" cy="56.666" r=".833" fill="#4F6BED"/><circle cx="127.501" cy="69.166" r=".833" fill="#4F6BED"/><circle cx="127.501" cy="81.666" r=".833" fill="#4F6BED"/><circle cx="140.001" cy="19.166" r=".833" fill="#4F6BED"/><circle cx="140.001" cy="31.666" r=".833" fill="#4F6BED"/><circle cx="140.001" cy="44.166" r=".833" fill="#4F6BED"/><circle cx="140.001" cy="56.666" r=".833" fill="#4F6BED"/><circle cx="140.001" cy="69.166" r=".833" fill="#4F6BED"/><circle cx="140.001" cy="81.666" r=".833" fill="#4F6BED"/><circle cx="152.501" cy="19.166" r=".833" fill="#4F6BED"/><circle cx="152.501" cy="31.666" r=".833" fill="#4F6BED"/><circle cx="152.501" cy="44.166" r=".833" fill="#4F6BED"/><circle cx="152.501" cy="56.666" r=".833" fill="#4F6BED"/><circle cx="152.501" cy="69.166" r=".833" fill="#4F6BED"/><circle cx="152.501" cy="81.666" r=".833" fill="#4F6BED"/><circle cx="165.001" cy="19.166" r=".833" fill="#4F6BED"/><circle cx="165.001" cy="31.666" r=".833" fill="#4F6BED"/><circle cx="165.001" cy="44.166" r=".833" fill="#4F6BED"/><circle cx="165.001" cy="56.666" r=".833" fill="#4F6BED"/><circle cx="165.001" cy="69.166" r=".833" fill="#4F6BED"/><circle cx="165.001" cy="81.666" r=".833" fill="#4F6BED"/><circle cx="177.501" cy="19.166" r=".833" fill="#4F6BED"/><circle cx="177.501" cy="31.666" r=".833" fill="#4F6BED"/><circle cx="177.501" cy="44.166" r=".833" fill="#4F6BED"/><circle cx="177.501" cy="56.666" r=".833" fill="#4F6BED"/><circle cx="177.501" cy="69.166" r=".833" fill="#4F6BED"/><circle cx="177.501" cy="81.666" r=".833" fill="#4F6BED"/><rect width="66.667" height="66.667" y="96.666" fill="#4F6BED"/><rect width="1.667" height="66.667" x="16.666" y="180" fill="#004E8C" transform="rotate(-90 16.666 180)"/><rect width="1.667" height="66.667" x="16.666" y="175" fill="#004E8C" transform="rotate(-90 16.666 175)"/><rect width="1.667" height="66.667" x="16.666" y="170" fill="#004E8C" transform="rotate(-90 16.666 170)"/><rect width="1.667" height="66.667" x="16.666" y="165" fill="#004E8C" transform="rotate(-90 16.666 165)"/><rect width="1.667" height="66.667" x="16.666" y="160" fill="#004E8C" transform="rotate(-90 16.666 160)"/><rect width="1.667" height="66.667" x="16.666" y="155" fill="#004E8C" transform="rotate(-90 16.666 155)"/><rect width="1.667" height="66.667" x="16.666" y="150" fill="#004E8C" transform="rotate(-90 16.666 150)"/><rect width="1.667" height="66.667" x="16.666" y="145" fill="#004E8C" transform="rotate(-90 16.666 145)"/><rect width="1.667" height="66.667" x="16.666" y="140" fill="#004E8C" transform="rotate(-90 16.666 140)"/><rect width="1.667" height="66.667" x="16.666" y="135" fill="#004E8C" transform="rotate(-90 16.666 135)"/><rect width="1.667" height="66.667" x="16.666" y="130" fill="#004E8C" transform="rotate(-90 16.666 130)"/><rect width="1.667" height="66.667" x="16.666" y="125" fill="#004E8C" transform="rotate(-90 16.666 125)"/><rect width="1.667" height="66.667" x="16.666" y="120" fill="#004E8C" transform="rotate(-90 16.666 120)"/><rect width="1.667" height="66.667" x="16.666" y="115" fill="#004E8C" transform="rotate(-90 16.666 115)"/><circle cx="33.334" cy="33.333" r="33.334" fill="#0078D4"/><mask id="mask0" width="68" height="68" x="16" y="16" mask-type="alpha" maskUnits="userSpaceOnUse"><circle cx="49.999" cy="49.999" r="33.334" fill="#fff"/></mask><g mask="url(#mask0)"><rect width="1.667" height="66.667" x="2.861" y="50" fill="#50E6FF" transform="rotate(-45 2.86133 49.9998)"/><rect width="1.667" height="66.667" x="6.396" y="46.464" fill="#50E6FF" transform="rotate(-45 6.39648 46.4639)"/><rect width="1.667" height="66.667" x="9.93" y="42.928" fill="#50E6FF" transform="rotate(-45 9.92969 42.9282)"/><rect width="1.667" height="66.667" x="13.469" y="39.393" fill="#50E6FF" transform="rotate(-45 13.4688 39.3926)"/><rect width="1.667" height="66.667" x="17.002" y="35.857" fill="#50E6FF" transform="rotate(-45 17.002 35.8574)"/><rect width="1.667" height="66.667" x="20.539" y="32.322" fill="#50E6FF" transform="rotate(-45 20.5391 32.3218)"/><rect width="1.667" height="66.667" x="24.072" y="28.786" fill="#50E6FF" transform="rotate(-45 24.0723 28.7861)"/><rect width="1.667" height="66.667" x="27.611" y="25.25" fill="#50E6FF" transform="rotate(-45 27.6113 25.2505)"/><rect width="1.667" height="66.667" x="31.145" y="21.715" fill="#50E6FF" transform="rotate(-45 31.1445 21.7151)"/><rect width="1.667" height="66.667" x="34.68" y="18.179" fill="#50E6FF" transform="rotate(-45 34.6797 18.1794)"/><rect width="1.667" height="66.667" x="38.215" y="14.644" fill="#50E6FF" transform="rotate(-45 38.2148 14.6438)"/><rect width="1.667" height="66.667" x="41.752" y="11.108" fill="#50E6FF" transform="rotate(-45 41.752 11.1084)"/><rect width="1.667" height="66.667" x="45.287" y="7.573" fill="#50E6FF" transform="rotate(-45 45.2871 7.57275)"/><rect width="1.667" height="66.667" x="48.822" y="4.037" fill="#50E6FF" transform="rotate(-45 48.8223 4.03711)"/></g><circle cx="130.001" cy="130" r="33.334" fill="#004E8C"/><mask id="mask1" width="68" height="68" x="113" y="113" mask-type="alpha" maskUnits="userSpaceOnUse"><circle cx="146.667" cy="146.667" r="33.334" fill="#4F6BED"/></mask><g mask="url(#mask1)"><circle cx="114.999" cy="115.833" r=".833" fill="#FCE100"/><circle cx="114.999" cy="120" r=".833" fill="#FCE100"/><circle cx="114.999" cy="124.166" r=".833" fill="#FCE100"/><circle cx="114.999" cy="128.333" r=".833" fill="#FCE100"/><circle cx="114.999" cy="132.5" r=".833" fill="#FCE100"/><circle cx="114.999" cy="136.667" r=".833" fill="#FCE100"/><circle cx="114.999" cy="140.833" r=".833" fill="#FCE100"/><circle cx="114.999" cy="145" r=".833" fill="#FCE100"/><circle cx="114.999" cy="149.167" r=".833" fill="#FCE100"/><circle cx="114.999" cy="153.333" r=".833" fill="#FCE100"/><circle cx="114.999" cy="157.5" r=".833" fill="#FCE100"/><circle cx="114.999" cy="161.667" r=".833" fill="#FCE100"/><circle cx="114.999" cy="165.833" r=".833" fill="#FCE100"/><circle cx="114.999" cy="170" r=".833" fill="#FCE100"/><circle cx="114.999" cy="174.167" r=".833" fill="#FCE100"/><circle cx="114.999" cy="178.333" r=".833" fill="#FCE100"/><circle cx="119.167" cy="115.833" r=".833" fill="#FCE100"/><circle cx="119.167" cy="120" r=".833" fill="#FCE100"/><circle cx="119.167" cy="124.166" r=".833" fill="#FCE100"/><circle cx="119.167" cy="128.333" r=".833" fill="#FCE100"/><circle cx="119.167" cy="132.5" r=".833" fill="#FCE100"/><circle cx="119.167" cy="136.667" r=".833" fill="#FCE100"/><circle cx="119.167" cy="140.833" r=".833" fill="#FCE100"/><circle cx="119.167" cy="145" r=".833" fill="#FCE100"/><circle cx="119.167" cy="149.167" r=".833" fill="#FCE100"/><circle cx="119.167" cy="153.333" r=".833" fill="#FCE100"/><circle cx="119.167" cy="157.5" r=".833" fill="#FCE100"/><circle cx="119.167" cy="161.667" r=".833" fill="#FCE100"/><circle cx="119.167" cy="165.833" r=".833" fill="#FCE100"/><circle cx="119.167" cy="170" r=".833" fill="#FCE100"/><circle cx="119.167" cy="174.167" r=".833" fill="#FCE100"/><circle cx="119.167" cy="178.333" r=".833" fill="#FCE100"/><circle cx="123.333" cy="115.833" r=".833" fill="#FCE100"/><circle cx="123.333" cy="120" r=".833" fill="#FCE100"/><circle cx="123.333" cy="124.166" r=".833" fill="#FCE100"/><circle cx="123.333" cy="128.333" r=".833" fill="#FCE100"/><circle cx="123.333" cy="132.5" r=".833" fill="#FCE100"/><circle cx="123.333" cy="136.667" r=".833" fill="#FCE100"/><circle cx="123.333" cy="140.833" r=".833" fill="#FCE100"/><circle cx="123.333" cy="145" r=".833" fill="#FCE100"/><circle cx="123.333" cy="149.167" r=".833" fill="#FCE100"/><circle cx="123.333" cy="153.333" r=".833" fill="#FCE100"/><circle cx="123.333" cy="157.5" r=".833" fill="#FCE100"/><circle cx="123.333" cy="161.667" r=".833" fill="#FCE100"/><circle cx="123.333" cy="165.833" r=".833" fill="#FCE100"/><circle cx="123.333" cy="170" r=".833" fill="#FCE100"/><circle cx="123.333" cy="174.167" r=".833" fill="#FCE100"/><circle cx="123.333" cy="178.333" r=".833" fill="#FCE100"/><circle cx="127.501" cy="115.833" r=".833" fill="#FCE100"/><circle cx="127.501" cy="120" r=".833" fill="#FCE100"/><circle cx="127.501" cy="124.166" r=".833" fill="#FCE100"/><circle cx="127.501" cy="128.333" r=".833" fill="#FCE100"/><circle cx="127.501" cy="132.5" r=".833" fill="#FCE100"/><circle cx="127.501" cy="136.667" r=".833" fill="#FCE100"/><circle cx="127.501" cy="140.833" r=".833" fill="#FCE100"/><circle cx="127.501" cy="145" r=".833" fill="#FCE100"/><circle cx="127.501" cy="149.167" r=".833" fill="#FCE100"/><circle cx="127.501" cy="153.333" r=".833" fill="#FCE100"/><circle cx="127.501" cy="157.5" r=".833" fill="#FCE100"/><circle cx="127.501" cy="161.667" r=".833" fill="#FCE100"/><circle cx="127.501" cy="165.833" r=".833" fill="#FCE100"/><circle cx="127.501" cy="170" r=".833" fill="#FCE100"/><circle cx="127.501" cy="174.167" r=".833" fill="#FCE100"/><circle cx="127.501" cy="178.333" r=".833" fill="#FCE100"/><circle cx="131.665" cy="115.833" r=".833" fill="#FCE100"/><circle cx="131.665" cy="120" r=".833" fill="#FCE100"/><circle cx="131.665" cy="124.166" r=".833" fill="#FCE100"/><circle cx="131.665" cy="128.333" r=".833" fill="#FCE100"/><circle cx="131.665" cy="132.5" r=".833" fill="#FCE100"/><circle cx="131.665" cy="136.667" r=".833" fill="#FCE100"/><circle cx="131.665" cy="140.833" r=".833" fill="#FCE100"/><circle cx="131.665" cy="145" r=".833" fill="#FCE100"/><circle cx="131.665" cy="149.167" r=".833" fill="#FCE100"/><circle cx="131.665" cy="153.333" r=".833" fill="#FCE100"/><circle cx="131.665" cy="157.5" r=".833" fill="#FCE100"/><circle cx="131.665" cy="161.667" r=".833" fill="#FCE100"/><circle cx="131.665" cy="165.833" r=".833" fill="#FCE100"/><circle cx="131.665" cy="170" r=".833" fill="#FCE100"/><circle cx="131.665" cy="174.167" r=".833" fill="#FCE100"/><circle cx="131.665" cy="178.333" r=".833" fill="#FCE100"/><circle cx="135.833" cy="115.833" r=".833" fill="#FCE100"/><circle cx="135.833" cy="120" r=".833" fill="#FCE100"/><circle cx="135.833" cy="124.166" r=".833" fill="#FCE100"/><circle cx="135.833" cy="128.333" r=".833" fill="#FCE100"/><circle cx="135.833" cy="132.5" r=".833" fill="#FCE100"/><circle cx="135.833" cy="136.667" r=".833" fill="#FCE100"/><circle cx="135.833" cy="140.833" r=".833" fill="#FCE100"/><circle cx="135.833" cy="145" r=".833" fill="#FCE100"/><circle cx="135.833" cy="149.167" r=".833" fill="#FCE100"/><circle cx="135.833" cy="153.333" r=".833" fill="#FCE100"/><circle cx="135.833" cy="157.5" r=".833" fill="#FCE100"/><circle cx="135.833" cy="161.667" r=".833" fill="#FCE100"/><circle cx="135.833" cy="165.833" r=".833" fill="#FCE100"/><circle cx="135.833" cy="170" r=".833" fill="#FCE100"/><circle cx="135.833" cy="174.167" r=".833" fill="#FCE100"/><circle cx="135.833" cy="178.333" r=".833" fill="#FCE100"/><circle cx="140.001" cy="115.833" r=".833" fill="#FCE100"/><circle cx="140.001" cy="120" r=".833" fill="#FCE100"/><circle cx="140.001" cy="124.166" r=".833" fill="#FCE100"/><circle cx="140.001" cy="128.333" r=".833" fill="#FCE100"/><circle cx="140.001" cy="132.5" r=".833" fill="#FCE100"/><circle cx="140.001" cy="136.667" r=".833" fill="#FCE100"/><circle cx="140.001" cy="140.833" r=".833" fill="#FCE100"/><circle cx="140.001" cy="145" r=".833" fill="#FCE100"/><circle cx="140.001" cy="149.167" r=".833" fill="#FCE100"/><circle cx="140.001" cy="153.333" r=".833" fill="#FCE100"/><circle cx="140.001" cy="157.5" r=".833" fill="#FCE100"/><circle cx="140.001" cy="161.667" r=".833" fill="#FCE100"/><circle cx="140.001" cy="165.833" r=".833" fill="#FCE100"/><circle cx="140.001" cy="170" r=".833" fill="#FCE100"/><circle cx="140.001" cy="174.167" r=".833" fill="#FCE100"/><circle cx="140.001" cy="178.333" r=".833" fill="#FCE100"/><circle cx="144.167" cy="115.833" r=".833" fill="#FCE100"/><circle cx="144.167" cy="120" r=".833" fill="#FCE100"/><circle cx="144.167" cy="124.166" r=".833" fill="#FCE100"/><circle cx="144.167" cy="128.333" r=".833" fill="#FCE100"/><circle cx="144.167" cy="132.5" r=".833" fill="#FCE100"/><circle cx="144.167" cy="136.667" r=".833" fill="#FCE100"/><circle cx="144.167" cy="140.833" r=".833" fill="#FCE100"/><circle cx="144.167" cy="145" r=".833" fill="#FCE100"/><circle cx="144.167" cy="149.167" r=".833" fill="#FCE100"/><circle cx="144.167" cy="153.333" r=".833" fill="#FCE100"/><circle cx="144.167" cy="157.5" r=".833" fill="#FCE100"/><circle cx="144.167" cy="161.667" r=".833" fill="#FCE100"/><circle cx="144.167" cy="165.833" r=".833" fill="#FCE100"/><circle cx="144.167" cy="170" r=".833" fill="#FCE100"/><circle cx="144.167" cy="174.167" r=".833" fill="#FCE100"/><circle cx="144.167" cy="178.333" r=".833" fill="#FCE100"/><circle cx="148.335" cy="115.833" r=".833" fill="#FCE100"/><circle cx="148.335" cy="120" r=".833" fill="#FCE100"/><circle cx="148.335" cy="124.166" r=".833" fill="#FCE100"/><circle cx="148.335" cy="128.333" r=".833" fill="#FCE100"/><circle cx="148.335" cy="132.5" r=".833" fill="#FCE100"/><circle cx="148.335" cy="136.667" r=".833" fill="#FCE100"/><circle cx="148.335" cy="140.833" r=".833" fill="#FCE100"/><circle cx="148.335" cy="145" r=".833" fill="#FCE100"/><circle cx="148.335" cy="149.167" r=".833" fill="#FCE100"/><circle cx="148.335" cy="153.333" r=".833" fill="#FCE100"/><circle cx="148.335" cy="157.5" r=".833" fill="#FCE100"/><circle cx="148.335" cy="161.667" r=".833" fill="#FCE100"/><circle cx="148.335" cy="165.833" r=".833" fill="#FCE100"/><circle cx="148.335" cy="170" r=".833" fill="#FCE100"/><circle cx="148.335" cy="174.167" r=".833" fill="#FCE100"/><circle cx="148.335" cy="178.333" r=".833" fill="#FCE100"/><circle cx="152.501" cy="115.833" r=".833" fill="#FCE100"/><circle cx="152.501" cy="120" r=".833" fill="#FCE100"/><circle cx="152.501" cy="124.166" r=".833" fill="#FCE100"/><circle cx="152.501" cy="128.333" r=".833" fill="#FCE100"/><circle cx="152.501" cy="132.5" r=".833" fill="#FCE100"/><circle cx="152.501" cy="136.667" r=".833" fill="#FCE100"/><circle cx="152.501" cy="140.833" r=".833" fill="#FCE100"/><circle cx="152.501" cy="145" r=".833" fill="#FCE100"/><circle cx="152.501" cy="149.167" r=".833" fill="#FCE100"/><circle cx="152.501" cy="153.333" r=".833" fill="#FCE100"/><circle cx="152.501" cy="157.5" r=".833" fill="#FCE100"/><circle cx="152.501" cy="161.667" r=".833" fill="#FCE100"/><circle cx="152.501" cy="165.833" r=".833" fill="#FCE100"/><circle cx="152.501" cy="170" r=".833" fill="#FCE100"/><circle cx="152.501" cy="174.167" r=".833" fill="#FCE100"/><circle cx="152.501" cy="178.333" r=".833" fill="#FCE100"/><circle cx="156.667" cy="115.833" r=".833" fill="#FCE100"/><circle cx="156.667" cy="120" r=".833" fill="#FCE100"/><circle cx="156.667" cy="124.166" r=".833" fill="#FCE100"/><circle cx="156.667" cy="128.333" r=".833" fill="#FCE100"/><circle cx="156.667" cy="132.5" r=".833" fill="#FCE100"/><circle cx="156.667" cy="136.667" r=".833" fill="#FCE100"/><circle cx="156.667" cy="140.833" r=".833" fill="#FCE100"/><circle cx="156.667" cy="145" r=".833" fill="#FCE100"/><circle cx="156.667" cy="149.167" r=".833" fill="#FCE100"/><circle cx="156.667" cy="153.333" r=".833" fill="#FCE100"/><circle cx="156.667" cy="157.5" r=".833" fill="#FCE100"/><circle cx="156.667" cy="161.667" r=".833" fill="#FCE100"/><circle cx="156.667" cy="165.833" r=".833" fill="#FCE100"/><circle cx="156.667" cy="170" r=".833" fill="#FCE100"/><circle cx="156.667" cy="174.167" r=".833" fill="#FCE100"/><circle cx="156.667" cy="178.333" r=".833" fill="#FCE100"/><circle cx="160.833" cy="115.833" r=".833" fill="#FCE100"/><circle cx="160.833" cy="120" r=".833" fill="#FCE100"/><circle cx="160.833" cy="124.166" r=".833" fill="#FCE100"/><circle cx="160.833" cy="128.333" r=".833" fill="#FCE100"/><circle cx="160.833" cy="132.5" r=".833" fill="#FCE100"/><circle cx="160.833" cy="136.667" r=".833" fill="#FCE100"/><circle cx="160.833" cy="140.833" r=".833" fill="#FCE100"/><circle cx="160.833" cy="145" r=".833" fill="#FCE100"/><circle cx="160.833" cy="149.167" r=".833" fill="#FCE100"/><circle cx="160.833" cy="153.333" r=".833" fill="#FCE100"/><circle cx="160.833" cy="157.5" r=".833" fill="#FCE100"/><circle cx="160.833" cy="161.667" r=".833" fill="#FCE100"/><circle cx="160.833" cy="165.833" r=".833" fill="#FCE100"/><circle cx="160.833" cy="170" r=".833" fill="#FCE100"/><circle cx="160.833" cy="174.167" r=".833" fill="#FCE100"/><circle cx="160.833" cy="178.333" r=".833" fill="#FCE100"/><circle cx="165.001" cy="115.833" r=".833" fill="#FCE100"/><circle cx="165.001" cy="120" r=".833" fill="#FCE100"/><circle cx="165.001" cy="124.166" r=".833" fill="#FCE100"/><circle cx="165.001" cy="128.333" r=".833" fill="#FCE100"/><circle cx="165.001" cy="132.5" r=".833" fill="#FCE100"/><circle cx="165.001" cy="136.667" r=".833" fill="#FCE100"/><circle cx="165.001" cy="140.833" r=".833" fill="#FCE100"/><circle cx="165.001" cy="145" r=".833" fill="#FCE100"/><circle cx="165.001" cy="149.167" r=".833" fill="#FCE100"/><circle cx="165.001" cy="153.333" r=".833" fill="#FCE100"/><circle cx="165.001" cy="157.5" r=".833" fill="#FCE100"/><circle cx="165.001" cy="161.667" r=".833" fill="#FCE100"/><circle cx="165.001" cy="165.833" r=".833" fill="#FCE100"/><circle cx="165.001" cy="170" r=".833" fill="#FCE100"/><circle cx="165.001" cy="174.167" r=".833" fill="#FCE100"/><circle cx="165.001" cy="178.333" r=".833" fill="#FCE100"/><circle cx="169.167" cy="115.833" r=".833" fill="#FCE100"/><circle cx="169.167" cy="120" r=".833" fill="#FCE100"/><circle cx="169.167" cy="124.166" r=".833" fill="#FCE100"/><circle cx="169.167" cy="128.333" r=".833" fill="#FCE100"/><circle cx="169.167" cy="132.5" r=".833" fill="#FCE100"/><circle cx="169.167" cy="136.667" r=".833" fill="#FCE100"/><circle cx="169.167" cy="140.833" r=".833" fill="#FCE100"/><circle cx="169.167" cy="145" r=".833" fill="#FCE100"/><circle cx="169.167" cy="149.167" r=".833" fill="#FCE100"/><circle cx="169.167" cy="153.333" r=".833" fill="#FCE100"/><circle cx="169.167" cy="157.5" r=".833" fill="#FCE100"/><circle cx="169.167" cy="161.667" r=".833" fill="#FCE100"/><circle cx="169.167" cy="165.833" r=".833" fill="#FCE100"/><circle cx="169.167" cy="170" r=".833" fill="#FCE100"/><circle cx="169.167" cy="174.167" r=".833" fill="#FCE100"/><circle cx="169.167" cy="178.333" r=".833" fill="#FCE100"/><circle cx="173.335" cy="115.833" r=".833" fill="#FCE100"/><circle cx="173.335" cy="120" r=".833" fill="#FCE100"/><circle cx="173.335" cy="124.166" r=".833" fill="#FCE100"/><circle cx="173.335" cy="128.333" r=".833" fill="#FCE100"/><circle cx="173.335" cy="132.5" r=".833" fill="#FCE100"/><circle cx="173.335" cy="136.667" r=".833" fill="#FCE100"/><circle cx="173.335" cy="140.833" r=".833" fill="#FCE100"/><circle cx="173.335" cy="145" r=".833" fill="#FCE100"/><circle cx="173.335" cy="149.167" r=".833" fill="#FCE100"/><circle cx="173.335" cy="153.333" r=".833" fill="#FCE100"/><circle cx="173.335" cy="157.5" r=".833" fill="#FCE100"/><circle cx="173.335" cy="161.667" r=".833" fill="#FCE100"/><circle cx="173.335" cy="165.833" r=".833" fill="#FCE100"/><circle cx="173.335" cy="170" r=".833" fill="#FCE100"/><circle cx="173.335" cy="174.167" r=".833" fill="#FCE100"/><circle cx="173.335" cy="178.333" r=".833" fill="#FCE100"/><circle cx="177.501" cy="115.833" r=".833" fill="#FCE100"/><circle cx="177.501" cy="120" r=".833" fill="#FCE100"/><circle cx="177.501" cy="124.166" r=".833" fill="#FCE100"/><circle cx="177.501" cy="128.333" r=".833" fill="#FCE100"/><circle cx="177.501" cy="132.5" r=".833" fill="#FCE100"/><circle cx="177.501" cy="136.667" r=".833" fill="#FCE100"/><circle cx="177.501" cy="140.833" r=".833" fill="#FCE100"/><circle cx="177.501" cy="145" r=".833" fill="#FCE100"/><circle cx="177.501" cy="149.167" r=".833" fill="#FCE100"/><circle cx="177.501" cy="153.333" r=".833" fill="#FCE100"/><circle cx="177.501" cy="157.5" r=".833" fill="#FCE100"/><circle cx="177.501" cy="161.667" r=".833" fill="#FCE100"/><circle cx="177.501" cy="165.833" r=".833" fill="#FCE100"/><circle cx="177.501" cy="170" r=".833" fill="#FCE100"/><circle cx="177.501" cy="174.167" r=".833" fill="#FCE100"/><circle cx="177.501" cy="178.333" r=".833" fill="#FCE100"/></g></svg>