<svg xmlns="http://www.w3.org/2000/svg" xmlns:xlink="http://www.w3.org/1999/xlink" id="Layer_1" x="0" y="0" viewBox="0 0 997.2 275.3" xml:space="preserve" style="enable-background:new 0 0 997.2 275.3"><style type="text/css">.st0{fill:url(#SVGID_1_)}.st1{fill:url(#SVGID_2_)}.st2{fill:url(#SVGID_3_)}.st3{fill:url(#SVGID_4_)}.st4{fill:url(#SVGID_5_)}.st5{fill:url(#SVGID_6_)}.st6{fill:url(#SVGID_7_)}.st7{fill:url(#SVGID_8_)}.st8{fill:url(#SVGID_9_)}.st9{fill:url(#SVGID_10_)}.st10{fill:url(#SVGID_11_)}.st11{fill:url(#SVGID_12_)}.st12{fill:url(#SVGID_13_)}.st13{fill:url(#SVGID_14_)}.st14{fill:url(#SVGID_15_)}.st15{fill:url(#SVGID_16_)}.st16{fill:url(#SVGID_17_)}.st17{fill:url(#SVGID_18_)}.st18{fill:url(#SVGID_19_)}.st19{fill:url(#SVGID_20_)}.st20{fill:url(#SVGID_21_)}.st21{fill:url(#SVGID_22_)}.st22{fill:url(#SVGID_23_)}.st23{fill:url(#SVGID_24_)}.st24{fill:url(#SVGID_25_)}.st25{fill:url(#SVGID_26_)}.st26{fill:url(#SVGID_27_)}.st27{fill:url(#SVGID_28_)}.st28{fill:url(#SVGID_29_)}.st29{fill:url(#SVGID_30_)}.st30{fill:url(#SVGID_31_)}.st31{fill:url(#SVGID_32_)}.st32{fill:url(#SVGID_33_)}.st33{fill:url(#SVGID_34_)}.st34{fill:url(#SVGID_35_)}.st35{fill:url(#SVGID_36_)}.st36{fill:url(#SVGID_37_)}.st37{fill:url(#SVGID_38_)}.st38{fill:url(#SVGID_39_)}</style><g><linearGradient id="SVGID_1_" x1="69.512" x2="537.441" y1="83.267" y2="337.034" gradientUnits="userSpaceOnUse"><stop offset="0" style="stop-color:#ed1846"/><stop offset=".087" style="stop-color:#e4274c"/><stop offset=".243" style="stop-color:#cf3e59"/><stop offset=".45" style="stop-color:#ab556f"/><stop offset=".7" style="stop-color:#75678f"/><stop offset=".984" style="stop-color:#0075b8"/><stop offset="1" style="stop-color:#0076bb"/></linearGradient><path d="M61.6,70.8c-4.5,0-8.2,3.7-8.2,8.2c0,4.5,3.7,8.2,8.2,8.2c4.5,0,8.2-3.7,8.2-8.2 C69.8,74.4,66.1,70.8,61.6,70.8z" class="st0"/><linearGradient id="SVGID_2_" x1=".571" x2="468.5" y1="210.388" y2="464.156" gradientUnits="userSpaceOnUse"><stop offset="0" style="stop-color:#ed1846"/><stop offset=".087" style="stop-color:#e4274c"/><stop offset=".243" style="stop-color:#cf3e59"/><stop offset=".45" style="stop-color:#ab556f"/><stop offset=".7" style="stop-color:#75678f"/><stop offset=".984" style="stop-color:#0075b8"/><stop offset="1" style="stop-color:#0076bb"/></linearGradient><path d="M33.1,219.8c-4.5,0-8.2,3.7-8.2,8.2c0,4.5,3.7,8.2,8.2,8.2c4.5,0,8.2-3.7,8.2-8.2 C41.4,223.5,37.7,219.8,33.1,219.8z" class="st1"/><linearGradient id="SVGID_3_" x1="120.55" x2="588.48" y1="-10.845" y2="242.922" gradientUnits="userSpaceOnUse"><stop offset="0" style="stop-color:#ed1846"/><stop offset=".087" style="stop-color:#e4274c"/><stop offset=".243" style="stop-color:#cf3e59"/><stop offset=".45" style="stop-color:#ab556f"/><stop offset=".7" style="stop-color:#75678f"/><stop offset=".984" style="stop-color:#0075b8"/><stop offset="1" style="stop-color:#0076bb"/></linearGradient><path d="M251.1,51.7c-4.5,0-8.2,3.7-8.2,8.2c0,4.5,3.7,8.2,8.2,8.2c4.5,0,8.2-3.7,8.2-8.2 C259.3,55.4,255.6,51.7,251.1,51.7z" class="st2"/><linearGradient id="SVGID_4_" x1="57.802" x2="525.731" y1="104.858" y2="358.625" gradientUnits="userSpaceOnUse"><stop offset="0" style="stop-color:#ed1846"/><stop offset=".087" style="stop-color:#e4274c"/><stop offset=".243" style="stop-color:#cf3e59"/><stop offset=".45" style="stop-color:#ab556f"/><stop offset=".7" style="stop-color:#75678f"/><stop offset=".984" style="stop-color:#0075b8"/><stop offset="1" style="stop-color:#0076bb"/></linearGradient><path d="M215.5,182.2c-4.5,0-8.2,3.7-8.2,8.2c0,4.5,3.7,8.2,8.2,8.2c4.5,0,8.2-3.7,8.2-8.2 C223.7,185.9,220,182.2,215.5,182.2z" class="st3"/><linearGradient id="SVGID_5_" x1="62.206" x2="530.135" y1="96.738" y2="350.505" gradientUnits="userSpaceOnUse"><stop offset="0" style="stop-color:#ed1846"/><stop offset=".087" style="stop-color:#e4274c"/><stop offset=".243" style="stop-color:#cf3e59"/><stop offset=".45" style="stop-color:#ab556f"/><stop offset=".7" style="stop-color:#75678f"/><stop offset=".984" style="stop-color:#0075b8"/><stop offset="1" style="stop-color:#0076bb"/></linearGradient><path d="M137.6,233.4c15.5,0,31-3.8,44.7-11.1c10.3-5.4,19.5-12.8,27.2-21.5c-3.6-2.1-6-6-6-10.4 c0-2.7,0.9-5.2,2.4-7.2l-9.6-6.8l-1.3,1.8c-13.2,18.7-34.7,29.8-57.4,29.8c-38.8,0-70.3-31.6-70.3-70.3c0-38.8,31.6-70.4,70.3-70.4 c22.7,0,44.1,11.1,57.4,29.8l1.3,1.8l20.8-14.7l-1.3-1.8c-8.7-12.3-20.3-22.4-33.5-29.4c-13.7-7.2-29.1-11.1-44.7-11.1 c-26.5,0-50.6,10.8-67.9,28.3c2.4,2.2,3.9,5.3,3.9,8.8c0,6.6-5.4,12-12,12c-2.4,0-4.6-0.7-6.5-1.9c-8.4,14.3-13.3,30.9-13.3,48.6 C41.9,190.5,84.8,233.4,137.6,233.4z" class="st4"/><linearGradient id="SVGID_6_" x1="62.205" x2="530.134" y1="96.74" y2="350.507" gradientUnits="userSpaceOnUse"><stop offset="0" style="stop-color:#ed1846"/><stop offset=".087" style="stop-color:#e4274c"/><stop offset=".243" style="stop-color:#cf3e59"/><stop offset=".45" style="stop-color:#ab556f"/><stop offset=".7" style="stop-color:#75678f"/><stop offset=".984" style="stop-color:#0075b8"/><stop offset="1" style="stop-color:#0076bb"/></linearGradient><path d="M230.5,74.7l10.9-7.7c-1.5-2-2.3-4.4-2.3-7.1c0-3.9,1.9-7.4,4.8-9.6c-11.6-14.1-26-25.9-42.1-34.4 c-9.7-5.1-20-9.1-30.6-11.8C160.3,1.4,149,0,137.6,0C61.7,0,0,61.7,0,137.6c0,30.1,9.7,58,26.2,80.7c2-1.4,4.4-2.2,7-2.2 c6.6,0,12,5.4,12,12c0,3.2-1.3,6.1-3.3,8.3c24.8,24.1,58.6,38.9,95.8,38.9c11.4,0,22.7-1.4,33.6-4.2c10.6-2.7,20.9-6.6,30.6-11.8 c19-10.1,35.7-24.7,48.1-42.3l1.3-1.8l-20.8-14.7l-1.3,1.8c-21.1,29.7-55.3,47.5-91.6,47.5c-61.9,0-112.2-50.3-112.2-112.2 c0-61.9,50.3-112.2,112.2-112.2c36.3,0,70.5,17.7,91.6,47.5L230.5,74.7z" class="st5"/><linearGradient id="SVGID_7_" x1="62.209" x2="530.138" y1="96.732" y2="350.5" gradientUnits="userSpaceOnUse"><stop offset="0" style="stop-color:#ed1846"/><stop offset=".087" style="stop-color:#e4274c"/><stop offset=".243" style="stop-color:#cf3e59"/><stop offset=".45" style="stop-color:#ab556f"/><stop offset=".7" style="stop-color:#75678f"/><stop offset=".984" style="stop-color:#0075b8"/><stop offset="1" style="stop-color:#0076bb"/></linearGradient><path d="M137.6,125.7c-6.6,0-12,5.4-12,12c0,6.6,5.4,12,12,12c6.6,0,12-5.4,12-12C149.6,131,144.2,125.7,137.6,125.7z" class="st6"/><linearGradient id="SVGID_8_" x1="62.213" x2="530.143" y1="96.724" y2="350.491" gradientUnits="userSpaceOnUse"><stop offset="0" style="stop-color:#ed1846"/><stop offset=".087" style="stop-color:#e4274c"/><stop offset=".243" style="stop-color:#cf3e59"/><stop offset=".45" style="stop-color:#ab556f"/><stop offset=".7" style="stop-color:#75678f"/><stop offset=".984" style="stop-color:#0075b8"/><stop offset="1" style="stop-color:#0076bb"/></linearGradient><path d="M163.2,185c17.4-9.4,28.2-27.6,28.2-47.4c0-14.4-5.6-27.9-15.8-38.1c-10.2-10.2-23.7-15.8-38.1-15.8 c-14.4,0-27.9,5.6-38.1,15.8c-10.2,10.2-15.8,23.7-15.8,38.1c0,19.8,10.8,37.9,28.2,47.4l2,1.1l12.1-22.4l-2-1.1 c-9.2-5-14.9-14.6-14.9-25c0-15.7,12.7-28.4,28.4-28.4c15.7,0,28.4,12.7,28.4,28.4c0,10.4-5.7,20-14.9,25l-2,1.1l12.1,22.4 L163.2,185z" class="st7"/><g><linearGradient id="SVGID_9_" x1="114.643" x2="582.572" y1=".558" y2="254.325" gradientUnits="userSpaceOnUse"><stop offset="0" style="stop-color:#ed1846"/><stop offset=".087" style="stop-color:#e4274c"/><stop offset=".243" style="stop-color:#cf3e59"/><stop offset=".45" style="stop-color:#ab556f"/><stop offset=".7" style="stop-color:#75678f"/><stop offset=".984" style="stop-color:#0075b8"/><stop offset="1" style="stop-color:#0076bb"/></linearGradient><path d="M291.6,119.3h3.1c7,0,12.4-5.3,12.4-12.3v-2.2l-7.7-0.7v2.9c0,2.8-2.1,5-4.9,5h-2.8c-2.8,0-4.9-2.2-4.9-5 V87.7c0-2.8,2.1-5,4.9-5h2.8c2.8,0,4.9,2.2,4.9,5v2.9l7.7-0.7v-2.2c0-7-5.4-12.3-12.4-12.3h-3.1c-7,0-12.4,5.3-12.4,12.3V107 C279.2,114,284.6,119.3,291.6,119.3z" class="st8"/><linearGradient id="SVGID_10_" x1="122.798" x2="590.727" y1="-14.479" y2="239.288" gradientUnits="userSpaceOnUse"><stop offset="0" style="stop-color:#ed1846"/><stop offset=".087" style="stop-color:#e4274c"/><stop offset=".243" style="stop-color:#cf3e59"/><stop offset=".45" style="stop-color:#ab556f"/><stop offset=".7" style="stop-color:#75678f"/><stop offset=".984" style="stop-color:#0075b8"/><stop offset="1" style="stop-color:#0076bb"/></linearGradient><path d="M330.6,75.4h-3.1c-7,0-12.4,5.3-12.4,12.3V107c0,7,5.4,12.3,12.4,12.3h3.1c7,0,12.4-5.3,12.4-12.3V87.7 C343,80.7,337.6,75.4,330.6,75.4z M335.3,107c0,2.8-2.1,5-4.9,5h-2.8c-2.8,0-4.9-2.2-4.9-5V87.7c0-2.8,2.1-5,4.9-5h2.8 c2.8,0,4.9,2.2,4.9,5V107z" class="st9"/><linearGradient id="SVGID_11_" x1="123.85" x2="606.078" y1="-34.563" y2="226.959" gradientUnits="userSpaceOnUse"><stop offset="0" style="stop-color:#ed1846"/><stop offset=".087" style="stop-color:#e4274c"/><stop offset=".243" style="stop-color:#cf3e59"/><stop offset=".45" style="stop-color:#ab556f"/><stop offset=".7" style="stop-color:#75678f"/><stop offset=".984" style="stop-color:#0075b8"/><stop offset="1" style="stop-color:#0076bb"/></linearGradient><polygon points="359.1 89.3 359.5 91.2 376.2 119.4 383.2 119.4 383.2 75.4 375.3 75.4 375.3 105.5 374.9 103.6 358.1 75.4 351.2 75.4 351.2 119.4 359.1 119.4" class="st10"/><linearGradient id="SVGID_12_" x1="129.727" x2="611.954" y1="-51.39" y2="210.132" gradientUnits="userSpaceOnUse"><stop offset="0" style="stop-color:#ed1846"/><stop offset=".087" style="stop-color:#e4274c"/><stop offset=".243" style="stop-color:#cf3e59"/><stop offset=".45" style="stop-color:#ab556f"/><stop offset=".7" style="stop-color:#75678f"/><stop offset=".984" style="stop-color:#0075b8"/><stop offset="1" style="stop-color:#0076bb"/></linearGradient><polygon points="390 119.4 398 119.4 398 101.2 414.2 101.2 414.2 93.6 398 93.6 398 82.9 418.1 82.9 418.1 75.4 390 75.4" class="st11"/><linearGradient id="SVGID_13_" x1="136.05" x2="618.278" y1="-61.575" y2="199.946" gradientUnits="userSpaceOnUse"><stop offset="0" style="stop-color:#ed1846"/><stop offset=".087" style="stop-color:#e4274c"/><stop offset=".243" style="stop-color:#cf3e59"/><stop offset=".45" style="stop-color:#ab556f"/><stop offset=".7" style="stop-color:#75678f"/><stop offset=".984" style="stop-color:#0075b8"/><stop offset="1" style="stop-color:#0076bb"/></linearGradient><rect width="7.9" height="44" x="425.2" y="75.4" class="st12"/><linearGradient id="SVGID_14_" x1="139.09" x2="621.318" y1="-71.519" y2="190.002" gradientUnits="userSpaceOnUse"><stop offset="0" style="stop-color:#ed1846"/><stop offset=".087" style="stop-color:#e4274c"/><stop offset=".243" style="stop-color:#cf3e59"/><stop offset=".45" style="stop-color:#ab556f"/><stop offset=".7" style="stop-color:#75678f"/><stop offset=".984" style="stop-color:#0075b8"/><stop offset="1" style="stop-color:#0076bb"/></linearGradient><path d="M469.7,106.7V88.1c0-7.2-5.6-12.7-12.8-12.7h-16v44h16C464.1,119.4,469.7,113.9,469.7,106.7z M448.8,111.9 V82.9h7.9c2.9,0,5,2.3,5,5.2v18.6c0,2.9-2.1,5.2-5,5.2H448.8z" class="st13"/><linearGradient id="SVGID_15_" x1="146.635" x2="628.862" y1="-89.365" y2="172.156" gradientUnits="userSpaceOnUse"><stop offset="0" style="stop-color:#ed1846"/><stop offset=".087" style="stop-color:#e4274c"/><stop offset=".243" style="stop-color:#cf3e59"/><stop offset=".45" style="stop-color:#ab556f"/><stop offset=".7" style="stop-color:#75678f"/><stop offset=".984" style="stop-color:#0075b8"/><stop offset="1" style="stop-color:#0076bb"/></linearGradient><polygon points="477 119.4 505.1 119.4 505.1 111.9 484.9 111.9 484.9 101.2 501.1 101.2 501.1 93.6 484.9 93.6 484.9 82.9 505.1 82.9 505.1 75.4 477 75.4" class="st14"/><linearGradient id="SVGID_16_" x1="156.045" x2="637.04" y1="-104.677" y2="156.176" gradientUnits="userSpaceOnUse"><stop offset="0" style="stop-color:#ed1846"/><stop offset=".087" style="stop-color:#e4274c"/><stop offset=".243" style="stop-color:#cf3e59"/><stop offset=".45" style="stop-color:#ab556f"/><stop offset=".7" style="stop-color:#75678f"/><stop offset=".984" style="stop-color:#0075b8"/><stop offset="1" style="stop-color:#0076bb"/></linearGradient><polygon points="520.5 89.3 520.9 91.1 537.6 119.3 544.6 119.3 544.6 75.4 536.7 75.4 536.7 105.4 536.3 103.6 519.5 75.4 512.6 75.4 512.6 119.3 520.5 119.3" class="st15"/><linearGradient id="SVGID_17_" x1="167.588" x2="648.583" y1="-122.17" y2="138.683" gradientUnits="userSpaceOnUse"><stop offset="0" style="stop-color:#ed1846"/><stop offset=".087" style="stop-color:#e4274c"/><stop offset=".243" style="stop-color:#cf3e59"/><stop offset=".45" style="stop-color:#ab556f"/><stop offset=".7" style="stop-color:#75678f"/><stop offset=".984" style="stop-color:#0075b8"/><stop offset="1" style="stop-color:#0076bb"/></linearGradient><polygon points="552.9 82.9 563.2 82.9 563.2 119.3 571.1 119.3 571.1 82.9 581.5 82.9 581.5 75.4 552.9 75.4" class="st16"/><linearGradient id="SVGID_18_" x1="174.042" x2="655.036" y1="-130.279" y2="130.573" gradientUnits="userSpaceOnUse"><stop offset="0" style="stop-color:#ed1846"/><stop offset=".087" style="stop-color:#e4274c"/><stop offset=".243" style="stop-color:#cf3e59"/><stop offset=".45" style="stop-color:#ab556f"/><stop offset=".7" style="stop-color:#75678f"/><stop offset=".984" style="stop-color:#0075b8"/><stop offset="1" style="stop-color:#0076bb"/></linearGradient><rect width="7.9" height="43.9" x="589.8" y="75.4" class="st17"/><linearGradient id="SVGID_19_" x1="181.901" x2="662.896" y1="-139.085" y2="121.767" gradientUnits="userSpaceOnUse"><stop offset="0" style="stop-color:#ed1846"/><stop offset=".087" style="stop-color:#e4274c"/><stop offset=".243" style="stop-color:#cf3e59"/><stop offset=".45" style="stop-color:#ab556f"/><stop offset=".7" style="stop-color:#75678f"/><stop offset=".984" style="stop-color:#0075b8"/><stop offset="1" style="stop-color:#0076bb"/></linearGradient><path d="M618.7,75.4l-12.2,43.9h8.5l2.3-8.7h13.5l2.3,8.7h8.5l-12.3-43.9H618.7z M618.9,103.8l5-19.1L624,83l0.1,1.6 l4.9,19.1H618.9z" class="st18"/><linearGradient id="SVGID_20_" x1="192.412" x2="673.407" y1="-152.78" y2="108.073" gradientUnits="userSpaceOnUse"><stop offset="0" style="stop-color:#ed1846"/><stop offset=".087" style="stop-color:#e4274c"/><stop offset=".243" style="stop-color:#cf3e59"/><stop offset=".45" style="stop-color:#ab556f"/><stop offset=".7" style="stop-color:#75678f"/><stop offset=".984" style="stop-color:#0075b8"/><stop offset="1" style="stop-color:#0076bb"/></linearGradient><polygon points="657.6 75.4 649.7 75.4 649.7 119.3 673.8 119.3 673.8 111.8 657.6 111.8" class="st19"/><linearGradient id="SVGID_21_" x1="210.174" x2="678.104" y1="-168.22" y2="85.547" gradientUnits="userSpaceOnUse"><stop offset="0" style="stop-color:#ed1846"/><stop offset=".087" style="stop-color:#e4274c"/><stop offset=".243" style="stop-color:#cf3e59"/><stop offset=".45" style="stop-color:#ab556f"/><stop offset=".7" style="stop-color:#75678f"/><stop offset=".984" style="stop-color:#0075b8"/><stop offset="1" style="stop-color:#0076bb"/></linearGradient><path d="M701.4,75.4h-3.1c-7,0-12.4,5.3-12.4,12.3V107c0,7,5.4,12.3,12.4,12.3h3.1c7,0,12.4-5.3,12.4-12.3v-2.2 l-7.7-0.7v2.9c0,2.8-2.1,5-4.9,5h-2.8c-2.8,0-4.9-2.2-4.9-5V87.7c0-2.8,2.1-5,4.9-5h2.8c2.8,0,4.9,2.2,4.9,5v2.9l7.7-0.7v-2.2 C713.9,80.7,708.4,75.4,701.4,75.4z" class="st20"/><linearGradient id="SVGID_22_" x1="218.318" x2="686.247" y1="-183.257" y2="70.511" gradientUnits="userSpaceOnUse"><stop offset="0" style="stop-color:#ed1846"/><stop offset=".087" style="stop-color:#e4274c"/><stop offset=".243" style="stop-color:#cf3e59"/><stop offset=".45" style="stop-color:#ab556f"/><stop offset=".7" style="stop-color:#75678f"/><stop offset=".984" style="stop-color:#0075b8"/><stop offset="1" style="stop-color:#0076bb"/></linearGradient><path d="M749.7,107V87.7c0-7-5.4-12.3-12.4-12.3h-3.1c-7,0-12.4,5.3-12.4,12.3V107c0,7,5.4,12.3,12.4,12.3h3.1 C744.3,119.3,749.7,114,749.7,107z M742,107c0,2.8-2.1,5-4.9,5h-2.8c-2.8,0-4.9-2.2-4.9-5V87.7c0-2.8,2.1-5,4.9-5h2.8 c2.8,0,4.9,2.2,4.9,5V107z" class="st21"/><linearGradient id="SVGID_23_" x1="210.844" x2="693.071" y1="-210.738" y2="50.783" gradientUnits="userSpaceOnUse"><stop offset="0" style="stop-color:#ed1846"/><stop offset=".087" style="stop-color:#e4274c"/><stop offset=".243" style="stop-color:#cf3e59"/><stop offset=".45" style="stop-color:#ab556f"/><stop offset=".7" style="stop-color:#75678f"/><stop offset=".984" style="stop-color:#0075b8"/><stop offset="1" style="stop-color:#0076bb"/></linearGradient><polygon points="779.2 108.9 779 110.5 778.9 108.9 769.2 75.4 757.7 75.4 757.7 119.4 765.6 119.4 765.6 85.1 765.8 87 775.2 119.4 782.9 119.4 792.2 87 792.5 85.1 792.5 119.4 800.4 119.4 800.4 75.4 788.8 75.4" class="st22"/><linearGradient id="SVGID_24_" x1="217.917" x2="700.144" y1="-228.061" y2="33.461" gradientUnits="userSpaceOnUse"><stop offset="0" style="stop-color:#ed1846"/><stop offset=".087" style="stop-color:#e4274c"/><stop offset=".243" style="stop-color:#cf3e59"/><stop offset=".45" style="stop-color:#ab556f"/><stop offset=".7" style="stop-color:#75678f"/><stop offset=".984" style="stop-color:#0075b8"/><stop offset="1" style="stop-color:#0076bb"/></linearGradient><path d="M824.5,75.4h-16.4v44h7.9V105h8.4c7.2,0,12.8-5.5,12.8-12.7v-4.2C837.3,80.9,831.7,75.4,824.5,75.4z M829.4,92.3c0,2.9-2.1,5.2-5,5.2h-8.3V82.9h8.3c2.9,0,5,2.3,5,5.2V92.3z" class="st23"/><linearGradient id="SVGID_25_" x1="237.063" x2="712.495" y1="-242.262" y2="15.574" gradientUnits="userSpaceOnUse"><stop offset="0" style="stop-color:#ed1846"/><stop offset=".087" style="stop-color:#e4274c"/><stop offset=".243" style="stop-color:#cf3e59"/><stop offset=".45" style="stop-color:#ab556f"/><stop offset=".7" style="stop-color:#75678f"/><stop offset=".984" style="stop-color:#0075b8"/><stop offset="1" style="stop-color:#0076bb"/></linearGradient><path d="M873,106.9V75.4h-7.8v31.5c0,2.9-2.1,5.1-5,5.1h-2.9c-2.9,0-5-2.2-5-5.1V75.4h-7.8v31.5 c0,7.1,5.5,12.5,12.6,12.5h3.1C867.4,119.4,873,114,873,106.9z" class="st24"/><linearGradient id="SVGID_26_" x1="238.298" x2="720.526" y1="-261.667" y2="-.145" gradientUnits="userSpaceOnUse"><stop offset="0" style="stop-color:#ed1846"/><stop offset=".087" style="stop-color:#e4274c"/><stop offset=".243" style="stop-color:#cf3e59"/><stop offset=".45" style="stop-color:#ab556f"/><stop offset=".7" style="stop-color:#75678f"/><stop offset=".984" style="stop-color:#0075b8"/><stop offset="1" style="stop-color:#0076bb"/></linearGradient><polygon points="880.9 82.9 891.3 82.9 891.3 119.4 899.2 119.4 899.2 82.9 909.6 82.9 909.6 75.4 880.9 75.4" class="st25"/><linearGradient id="SVGID_27_" x1="245.658" x2="726.652" y1="-268.914" y2="-8.061" gradientUnits="userSpaceOnUse"><stop offset="0" style="stop-color:#ed1846"/><stop offset=".087" style="stop-color:#e4274c"/><stop offset=".243" style="stop-color:#cf3e59"/><stop offset=".45" style="stop-color:#ab556f"/><stop offset=".7" style="stop-color:#75678f"/><stop offset=".984" style="stop-color:#0075b8"/><stop offset="1" style="stop-color:#0076bb"/></linearGradient><rect width="7.9" height="43.9" x="917.1" y="75.4" class="st26"/><linearGradient id="SVGID_28_" x1="248.482" x2="730.71" y1="-282.394" y2="-20.872" gradientUnits="userSpaceOnUse"><stop offset="0" style="stop-color:#ed1846"/><stop offset=".087" style="stop-color:#e4274c"/><stop offset=".243" style="stop-color:#cf3e59"/><stop offset=".45" style="stop-color:#ab556f"/><stop offset=".7" style="stop-color:#75678f"/><stop offset=".984" style="stop-color:#0075b8"/><stop offset="1" style="stop-color:#0076bb"/></linearGradient><polygon points="940.7 89.3 941.1 91.2 957.9 119.4 964.8 119.4 964.8 75.4 956.9 75.4 956.9 105.5 956.5 103.6 939.8 75.4 932.8 75.4 932.8 119.4 940.7 119.4" class="st27"/><linearGradient id="SVGID_29_" x1="273.801" x2="741.731" y1="-287.388" y2="-33.621" gradientUnits="userSpaceOnUse"><stop offset="0" style="stop-color:#ed1846"/><stop offset=".087" style="stop-color:#e4274c"/><stop offset=".243" style="stop-color:#cf3e59"/><stop offset=".45" style="stop-color:#ab556f"/><stop offset=".7" style="stop-color:#75678f"/><stop offset=".984" style="stop-color:#0075b8"/><stop offset="1" style="stop-color:#0076bb"/></linearGradient><path d="M997.2,89.9v-2.2c0-7-5.4-12.3-12.4-12.3h-3.1c-7,0-12.4,5.3-12.4,12.3V107c0,7,5.4,12.3,12.4,12.3h1.8 c3.5,0,6.5-1.5,8.5-4l2.2,3.4h3V95h-7.7h-6.3v7.3h6.3v4.6c0,2.8-2.1,5-4.9,5h-2.8c-2.8,0-4.9-2.2-4.9-5V87.7c0-2.8,2.1-5,4.9-5 h2.8c2.8,0,4.9,2.2,4.9,5v2.9L997.2,89.9z" class="st28"/></g><g><linearGradient id="SVGID_30_" x1="85.988" x2="555.928" y1="50.821" y2="305.678" gradientUnits="userSpaceOnUse"><stop offset="0" style="stop-color:#ed1846"/><stop offset=".087" style="stop-color:#e4274c"/><stop offset=".243" style="stop-color:#cf3e59"/><stop offset=".45" style="stop-color:#ab556f"/><stop offset=".7" style="stop-color:#75678f"/><stop offset=".984" style="stop-color:#0075b8"/><stop offset="1" style="stop-color:#0076bb"/></linearGradient><path d="M302.2,134.2h-4.5c-10.4,0-18.5,7.9-18.5,18.3v28.6c0,10.4,8.1,18.3,18.5,18.3h4.5 c10.4,0,18.5-7.9,18.5-18.3v-3.3l-11.4-1.1v4.3c0,4.2-3.1,7.4-7.2,7.4h-4.2c-4.2,0-7.2-3.3-7.2-7.4v-28.6c0-4.2,3.1-7.4,7.2-7.4 h4.2c4.2,0,7.2,3.3,7.2,7.4v4.3l11.4-1.1v-3.3C320.6,142.1,312.6,134.2,302.2,134.2z" class="st29"/><linearGradient id="SVGID_31_" x1="103.231" x2="573.171" y1="19.026" y2="273.884" gradientUnits="userSpaceOnUse"><stop offset="0" style="stop-color:#ed1846"/><stop offset=".087" style="stop-color:#e4274c"/><stop offset=".243" style="stop-color:#cf3e59"/><stop offset=".45" style="stop-color:#ab556f"/><stop offset=".7" style="stop-color:#75678f"/><stop offset=".984" style="stop-color:#0075b8"/><stop offset="1" style="stop-color:#0076bb"/></linearGradient><path d="M378,134.2h-4.5c-10.4,0-18.5,7.9-18.5,18.3v28.6c0,10.4,8.1,18.3,18.5,18.3h4.5c10.4,0,18.5-7.9,18.5-18.3 v-28.6C396.5,142.1,388.4,134.2,378,134.2z M385.1,181.1c0,4.2-3.1,7.4-7.2,7.4h-4.2c-4.2,0-7.2-3.3-7.2-7.4v-28.6 c0-4.2,3.1-7.4,7.2-7.4h4.2c4.2,0,7.2,3.3,7.2,7.4V181.1z" class="st30"/><linearGradient id="SVGID_32_" x1="110.513" x2="593.886" y1="-19.697" y2="242.446" gradientUnits="userSpaceOnUse"><stop offset="0" style="stop-color:#ed1846"/><stop offset=".087" style="stop-color:#e4274c"/><stop offset=".243" style="stop-color:#cf3e59"/><stop offset=".45" style="stop-color:#ab556f"/><stop offset=".7" style="stop-color:#75678f"/><stop offset=".984" style="stop-color:#0075b8"/><stop offset="1" style="stop-color:#0076bb"/></linearGradient><polygon points="466.5 178.8 465.9 176.1 441 134.2 430.7 134.2 430.7 199.4 442.4 199.4 442.4 154.8 443 157.6 467.9 199.4 478.2 199.4 478.2 134.2 466.5 134.2" class="st31"/><linearGradient id="SVGID_33_" x1="136.288" x2="606.227" y1="-47.483" y2="207.374" gradientUnits="userSpaceOnUse"><stop offset="0" style="stop-color:#ed1846"/><stop offset=".087" style="stop-color:#e4274c"/><stop offset=".243" style="stop-color:#cf3e59"/><stop offset=".45" style="stop-color:#ab556f"/><stop offset=".7" style="stop-color:#75678f"/><stop offset=".984" style="stop-color:#0075b8"/><stop offset="1" style="stop-color:#0076bb"/></linearGradient><path d="M523.1,153.1v-0.5c0-4.2,3.1-7.4,7.2-7.4h2.8c4.2,0,7.2,3.3,7.2,7.4v3.2l11.4-1.1v-2.1 c0-10.4-8.1-18.3-18.5-18.3h-3.2c-10.4,0-18.5,7.9-18.5,18.3v0.5c0,24.4,29.2,13.8,29.2,27.3v0.8c0,4.2-3.1,7.4-7.2,7.4h-3.7 c-4.2,0-7.2-3.3-7.2-7.4V178l-11.4,1.1v2.1c0,10.4,8.1,18.3,18.5,18.3h4.1c10.4,0,18.5-7.9,18.5-18.3v-0.8 C552.2,156.8,523.1,165.8,523.1,153.1z" class="st32"/><linearGradient id="SVGID_34_" x1="154.432" x2="624.371" y1="-79.088" y2="175.769" gradientUnits="userSpaceOnUse"><stop offset="0" style="stop-color:#ed1846"/><stop offset=".087" style="stop-color:#e4274c"/><stop offset=".243" style="stop-color:#cf3e59"/><stop offset=".45" style="stop-color:#ab556f"/><stop offset=".7" style="stop-color:#75678f"/><stop offset=".984" style="stop-color:#0075b8"/><stop offset="1" style="stop-color:#0076bb"/></linearGradient><path d="M610.2,134.2h-4.5c-10.4,0-18.5,7.9-18.5,18.3v28.6c0,10.4,8.1,18.3,18.5,18.3h4.5 c10.4,0,18.5-7.9,18.5-18.3v-28.6C628.6,142.1,620.6,134.2,610.2,134.2z M617.2,181.1c0,4.2-3.1,7.4-7.2,7.4h-4.2 c-4.2,0-7.2-3.3-7.2-7.4v-28.6c0-4.2,3.1-7.4,7.2-7.4h4.2c4.2,0,7.2,3.3,7.2,7.4V181.1z" class="st33"/><linearGradient id="SVGID_35_" x1="156.297" x2="639.67" y1="-116.414" y2="145.729" gradientUnits="userSpaceOnUse"><stop offset="0" style="stop-color:#ed1846"/><stop offset=".087" style="stop-color:#e4274c"/><stop offset=".243" style="stop-color:#cf3e59"/><stop offset=".45" style="stop-color:#ab556f"/><stop offset=".7" style="stop-color:#75678f"/><stop offset=".984" style="stop-color:#0075b8"/><stop offset="1" style="stop-color:#0076bb"/></linearGradient><path d="M707.1,156.5V153c0-10.7-8.3-18.8-19-18.8h-24.2v65.2h11.7v-24.1h7.6l12.4,24.1h12.9L695.2,174 C702.3,171.3,707.1,164.7,707.1,156.5z M688,164.1h-12.3v-18.7H688c4.3,0,7.5,3.4,7.5,7.6v3.4C695.4,160.8,692.2,164.1,688,164.1z" class="st34"/><linearGradient id="SVGID_36_" x1="174.214" x2="657.588" y1="-153.222" y2="108.921" gradientUnits="userSpaceOnUse"><stop offset="0" style="stop-color:#ed1846"/><stop offset=".087" style="stop-color:#e4274c"/><stop offset=".243" style="stop-color:#cf3e59"/><stop offset=".45" style="stop-color:#ab556f"/><stop offset=".7" style="stop-color:#75678f"/><stop offset=".984" style="stop-color:#0075b8"/><stop offset="1" style="stop-color:#0076bb"/></linearGradient><polygon points="735.5 145.4 750.8 145.4 750.8 199.4 762.6 199.4 762.6 145.4 777.9 145.4 777.9 134.2 735.5 134.2" class="st35"/><linearGradient id="SVGID_37_" x1="186.961" x2="670.334" y1="-175.017" y2="87.126" gradientUnits="userSpaceOnUse"><stop offset="0" style="stop-color:#ed1846"/><stop offset=".087" style="stop-color:#e4274c"/><stop offset=".243" style="stop-color:#cf3e59"/><stop offset=".45" style="stop-color:#ab556f"/><stop offset=".7" style="stop-color:#75678f"/><stop offset=".984" style="stop-color:#0075b8"/><stop offset="1" style="stop-color:#0076bb"/></linearGradient><rect width="11.7" height="65.2" x="811.4" y="134.2" class="st36"/><linearGradient id="SVGID_38_" x1="209.891" x2="686.453" y1="-199.803" y2="58.646" gradientUnits="userSpaceOnUse"><stop offset="0" style="stop-color:#ed1846"/><stop offset=".087" style="stop-color:#e4274c"/><stop offset=".243" style="stop-color:#cf3e59"/><stop offset=".45" style="stop-color:#ab556f"/><stop offset=".7" style="stop-color:#75678f"/><stop offset=".984" style="stop-color:#0075b8"/><stop offset="1" style="stop-color:#0076bb"/></linearGradient><path d="M888.5,180.9c0,4.2-3.1,7.5-7.3,7.5H877c-4.2,0-7.3-3.3-7.3-7.5v-46.6h-11.6v46.6c0,10.6,8.2,18.5,18.7,18.5 h4.6c10.6,0,18.7-8,18.7-18.5v-46.6h-11.6V180.9z" class="st37"/><linearGradient id="SVGID_39_" x1="215.52" x2="698.893" y1="-239.838" y2="22.305" gradientUnits="userSpaceOnUse"><stop offset="0" style="stop-color:#ed1846"/><stop offset=".087" style="stop-color:#e4274c"/><stop offset=".243" style="stop-color:#cf3e59"/><stop offset=".45" style="stop-color:#ab556f"/><stop offset=".7" style="stop-color:#75678f"/><stop offset=".984" style="stop-color:#0075b8"/><stop offset="1" style="stop-color:#0076bb"/></linearGradient><polygon points="965.6 183.9 965.4 186.3 965.2 183.9 950.9 134.2 933.7 134.2 933.7 199.4 945.5 199.4 945.5 148.7 945.8 151.5 959.7 199.4 971.1 199.4 984.9 151.5 985.3 148.7 985.3 199.4 997.1 199.4 997.1 134.2 979.9 134.2" class="st38"/></g></g></svg>