<svg xmlns="http://www.w3.org/2000/svg" width="144" height="144" fill="none" viewBox="0 0 144 144"><path fill="#CCC" d="M0 39H48V18H6C2.7 18 0 20.7 0 24V39Z"/><path fill="#999" d="M96 18H48V39H96V18Z"/><path fill="#666" d="M144 39H96V18H138C141.3 18 144 20.7 144 24V39Z"/><path fill="url(#paint0_linear)" d="M138 126H6C2.7 126 0 123.3 0 120V36H144V120C144 123.3 141.3 126 138 126Z"/><g filter="url(#filter0_dd)"><path fill="url(#paint1_linear)" d="M45.5999 72.9L19.2 99.3C17.7 100.8 17.7 102.9 19.2 104.1L24.5999 109.5C26.0999 111 28.2 111 29.4 109.5L55.7999 83.1C57.2999 81.6 57.2999 79.5 55.7999 78.3L50.3999 72.9C49.1999 71.7 46.7999 71.7 45.5999 72.9Z"/><mask id="mask0" width="39" height="39" x="18" y="72" mask-type="alpha" maskUnits="userSpaceOnUse"><path fill="url(#paint2_linear)" d="M45.5999 72.9L19.2 99.3C17.7 100.8 17.7 102.9 19.2 104.1L24.5999 109.5C26.0999 111 28.2 111 29.4 109.5L55.7999 83.1C57.2999 81.6 57.2999 79.5 55.7999 78.3L50.3999 72.9C49.1999 71.7 46.7999 71.7 45.5999 72.9Z"/></mask><g mask="url(#mask0)"><g filter="url(#filter1_dd)"><path fill="url(#paint3_linear)" d="M29.4 51.9L55.7999 78.3C57.2999 79.8 57.2999 81.9 55.7999 83.1L50.3999 88.5C48.8999 90 46.7999 90 45.5999 88.5L19.2 62.1C17.7 60.6 17.7 58.5 19.2 57.3L24.5999 51.9C25.7999 50.7 28.2 50.7 29.4 51.9Z"/></g></g><path fill="url(#paint4_linear)" d="M29.4002 51.9L55.8002 78.3C57.3002 79.8 57.3002 81.9 55.8002 83.1L50.4002 88.5C48.9002 90 46.8002 90 45.6002 88.5L19.2002 62.1C17.7002 60.6 17.7002 58.5 19.2002 57.3L24.6002 51.9C25.8002 50.7 28.2002 50.7 29.4002 51.9Z"/></g><g filter="url(#filter2_dd)"><path fill="url(#paint5_linear)" d="M120 95.9998H72C70.2 95.9998 69 97.1998 69 98.9998V108C69 109.8 70.2 111 72 111H120C121.8 111 123 109.8 123 108V98.9998C123 97.1998 121.8 95.9998 120 95.9998Z"/></g><defs><filter id="filter0_dd" width="44.85" height="65.625" x="15.075" y="49" color-interpolation-filters="sRGB" filterUnits="userSpaceOnUse"><feFlood flood-opacity="0" result="BackgroundImageFix"/><feColorMatrix in="SourceAlpha" type="matrix" values="0 0 0 0 0 0 0 0 0 0 0 0 0 0 0 0 0 0 127 0"/><feOffset dy=".5"/><feGaussianBlur stdDeviation=".5"/><feColorMatrix type="matrix" values="0 0 0 0 0 0 0 0 0 0 0 0 0 0 0 0 0 0 0.1 0"/><feBlend in2="BackgroundImageFix" mode="normal" result="effect1_dropShadow"/><feColorMatrix in="SourceAlpha" type="matrix" values="0 0 0 0 0 0 0 0 0 0 0 0 0 0 0 0 0 0 127 0"/><feOffset dy="1"/><feGaussianBlur stdDeviation="1.5"/><feColorMatrix type="matrix" values="0 0 0 0 0 0 0 0 0 0 0 0 0 0 0 0 0 0 0.2 0"/><feBlend in2="effect1_dropShadow" mode="normal" result="effect2_dropShadow"/><feBlend in="SourceGraphic" in2="effect2_dropShadow" mode="normal" result="shape"/></filter><filter id="filter1_dd" width="44.85" height="44.625" x="15.075" y="49" color-interpolation-filters="sRGB" filterUnits="userSpaceOnUse"><feFlood flood-opacity="0" result="BackgroundImageFix"/><feColorMatrix in="SourceAlpha" type="matrix" values="0 0 0 0 0 0 0 0 0 0 0 0 0 0 0 0 0 0 127 0"/><feOffset dy=".5"/><feGaussianBlur stdDeviation=".5"/><feColorMatrix type="matrix" values="0 0 0 0 0 0 0 0 0 0 0 0 0 0 0 0 0 0 0.1 0"/><feBlend in2="BackgroundImageFix" mode="normal" result="effect1_dropShadow"/><feColorMatrix in="SourceAlpha" type="matrix" values="0 0 0 0 0 0 0 0 0 0 0 0 0 0 0 0 0 0 127 0"/><feOffset dy="1"/><feGaussianBlur stdDeviation="1.5"/><feColorMatrix type="matrix" values="0 0 0 0 0 0 0 0 0 0 0 0 0 0 0 0 0 0 0.2 0"/><feBlend in2="effect1_dropShadow" mode="normal" result="effect2_dropShadow"/><feBlend in="SourceGraphic" in2="effect2_dropShadow" mode="normal" result="shape"/></filter><filter id="filter2_dd" width="60" height="21" x="66" y="94" color-interpolation-filters="sRGB" filterUnits="userSpaceOnUse"><feFlood flood-opacity="0" result="BackgroundImageFix"/><feColorMatrix in="SourceAlpha" type="matrix" values="0 0 0 0 0 0 0 0 0 0 0 0 0 0 0 0 0 0 127 0"/><feOffset dy=".5"/><feGaussianBlur stdDeviation=".5"/><feColorMatrix type="matrix" values="0 0 0 0 0 0 0 0 0 0 0 0 0 0 0 0 0 0 0.1 0"/><feBlend in2="BackgroundImageFix" mode="normal" result="effect1_dropShadow"/><feColorMatrix in="SourceAlpha" type="matrix" values="0 0 0 0 0 0 0 0 0 0 0 0 0 0 0 0 0 0 127 0"/><feOffset dy="1"/><feGaussianBlur stdDeviation="1.5"/><feColorMatrix type="matrix" values="0 0 0 0 0 0 0 0 0 0 0 0 0 0 0 0 0 0 0.2 0"/><feBlend in2="effect1_dropShadow" mode="normal" result="effect2_dropShadow"/><feBlend in="SourceGraphic" in2="effect2_dropShadow" mode="normal" result="shape"/></filter><linearGradient id="paint0_linear" x1="109.339" x2="35.465" y1="143.477" y2="15.524" gradientUnits="userSpaceOnUse"><stop stop-color="#333"/><stop offset="1" stop-color="#4D4D4D"/></linearGradient><linearGradient id="paint1_linear" x1="43.583" x2="31.452" y1="101.988" y2="80.977" gradientUnits="userSpaceOnUse"><stop stop-color="#999"/><stop offset="1" stop-color="#B3B3B3"/></linearGradient><linearGradient id="paint2_linear" x1="43.583" x2="31.452" y1="101.988" y2="80.977" gradientUnits="userSpaceOnUse"><stop stop-color="#999"/><stop offset="1" stop-color="#B3B3B3"/></linearGradient><linearGradient id="paint3_linear" x1="48.824" x2="26.211" y1="90.101" y2="50.934" gradientUnits="userSpaceOnUse"><stop stop-color="#CCC"/><stop offset="1" stop-color="#E6E6E6"/></linearGradient><linearGradient id="paint4_linear" x1="48.824" x2="26.211" y1="90.101" y2="50.934" gradientUnits="userSpaceOnUse"><stop stop-color="#CCC"/><stop offset="1" stop-color="#E6E6E6"/></linearGradient><linearGradient id="paint5_linear" x1="105.449" x2="86.551" y1="119.866" y2="87.134" gradientUnits="userSpaceOnUse"><stop stop-color="#CCC"/><stop offset="1" stop-color="#E6E6E6"/></linearGradient></defs></svg>